<?xml version="1.0" encoding="UTF-8" standalone="no"?>
<!DOCTYPE svg PUBLIC "-//W3C//DTD SVG 1.1//EN" "http://www.w3.org/Graphics/SVG/1.1/DTD/svg11.dtd">
<!-- Generated by graphviz version 2.40.1 (20161225.0304)
 -->
<!-- Title: flowchart Pages: 1 -->
<svg xmlns="http://www.w3.org/2000/svg" xmlns:xlink="http://www.w3.org/1999/xlink" width="756pt" height="295pt" viewBox="0.00 0.00 756.04 294.60">
  <g id="graph0" class="graph" transform="scale(1 1) rotate(0) translate(4 290.6)">
    <title>flowchart</title>
    <polygon fill="#ffffff" stroke="transparent" points="-4,4 -4,-290.6 752.037,-290.6 752.037,4 -4,4"/>
    <!-- InputJobsTasks -->
    <g id="node1" class="node">
      <title>InputJobsTasks</title>
      <polygon fill="none" stroke="#000000" points="230.6886,-286.6 118.6718,-286.6 118.6718,-250.6 230.6886,-250.6 230.6886,-286.6"/>
      <text text-anchor="middle" x="174.6802" y="-265" font-family="Arial" font-size="12.00" fill="#000000">Job-Task Pairings</text>
    </g>
    <!-- ToolChatGPT -->
    <g id="node3" class="node">
      <title>ToolChatGPT</title>
      <polygon fill="none" stroke="#c3142d" stroke-width="2" points="328.699,-197.8 242.6614,-197.8 242.6614,-161.8 328.699,-161.8 328.699,-197.8"/>
      <text text-anchor="start" x="250.6708" y="-177.2" font-family="Arial" font-weight="bold" font-size="12.00" fill="#000000">ChatGPT 3.5</text>
    </g>
    <!-- InputJobsTasks&#45;&gt;ToolChatGPT -->
    <g id="edge1" class="edge">
      <title>InputJobsTasks-&gt;ToolChatGPT</title>
      <path fill="none" stroke="#000000" d="M197.4106,-250.4157C214.0214,-237.127 236.7339,-218.9571 254.9599,-204.3763"/>
      <polygon fill="#000000" stroke="#000000" points="257.358,-206.94 262.9802,-197.96 252.9851,-201.4739 257.358,-206.94"/>
      <text text-anchor="start" x="240.6802" y="-221" font-family="Times,serif" font-weight="bold" font-size="14.00" fill="#c3142d">Input</text>
    </g>
    <!-- InputSystemPrompt -->
    <g id="node2" class="node">
      <title>InputSystemPrompt</title>
      <polygon fill="none" stroke="#000000" points="544.5476,-286.6 248.8128,-286.6 248.8128,-250.6 544.5476,-250.6 544.5476,-286.6"/>
      <text text-anchor="middle" x="396.6802" y="-265" font-family="Arial" font-size="12.00" fill="#000000">System Prompt along with a task classification rubric</text>
    </g>
    <!-- InputSystemPrompt&#45;&gt;ToolChatGPT -->
    <g id="edge2" class="edge">
      <title>InputSystemPrompt-&gt;ToolChatGPT</title>
      <path fill="none" stroke="#000000" d="M373.9498,-250.4157C357.339,-237.127 334.6265,-218.9571 316.4005,-204.3763"/>
      <polygon fill="#000000" stroke="#000000" points="318.3753,-201.4739 308.3802,-197.96 314.0024,-206.94 318.3753,-201.4739"/>
      <text text-anchor="start" x="350.6802" y="-221" font-family="Times,serif" font-weight="bold" font-size="14.00" fill="#c3142d">Input</text>
    </g>
    <!-- OutputClassification -->
    <g id="node4" class="node">
      <title>OutputClassification</title>
      <polygon fill="none" stroke="#000000" stroke-width="4" points="405.737,-109 165.6234,-109 165.6234,-73 405.737,-73 405.737,-109"/>
      <text text-anchor="start" x="173.6518" y="-88.4" font-family="Arial" font-weight="bold" font-size="12.00" fill="#000000">AI exposure classification for each task     </text>
    </g>
    <!-- ToolChatGPT&#45;&gt;OutputClassification -->
    <g id="edge3" class="edge">
      <title>ToolChatGPT-&gt;OutputClassification</title>
      <path fill="none" stroke="#000000" d="M285.6802,-161.4006C285.6802,-149.2949 285.6802,-133.2076 285.6802,-119.4674"/>
      <polygon fill="#000000" stroke="#000000" points="289.1803,-119.072 285.6802,-109.072 282.1803,-119.0721 289.1803,-119.072"/>
      <text text-anchor="start" x="285.6802" y="-132.2" font-family="Times,serif" font-weight="bold" font-size="14.00" fill="#c3142d">Generation</text>
    </g>
    <!-- E0 -->
    <g id="node5" class="node">
      <title>E0</title>
      <polygon fill="#ffffff" stroke="#c0c0c0" stroke-dasharray="5,2" points="105.5412,-36 -.1808,-36 -.1808,0 105.5412,0 105.5412,-36"/>
      <text text-anchor="middle" x="52.6802" y="-14.4" font-family="Arial" font-size="12.00" fill="#000000">E0: No exposure</text>
    </g>
    <!-- OutputClassification&#45;&gt;E0 -->
    <g id="edge4" class="edge">
      <title>OutputClassification-&gt;E0</title>
      <path fill="none" stroke="#c0c0c0" stroke-dasharray="5,2" d="M228.0847,-72.9551C190.6209,-61.2175 142.1286,-46.0246 105.6289,-34.5891"/>
    </g>
    <!-- E1 -->
    <g id="node6" class="node">
      <title>E1</title>
      <polygon fill="#ffffff" stroke="#c0c0c0" stroke-dasharray="5,2" points="245.8654,-36 123.495,-36 123.495,0 245.8654,0 245.8654,-36"/>
      <text text-anchor="middle" x="184.6802" y="-14.4" font-family="Arial" font-size="12.00" fill="#000000">E1: Direct Exposure</text>
    </g>
    <!-- OutputClassification&#45;&gt;E1 -->
    <g id="edge5" class="edge">
      <title>OutputClassification-&gt;E1</title>
      <path fill="none" stroke="#c0c0c0" stroke-dasharray="5,2" d="M260.7139,-72.9551C245.1752,-61.7241 225.2598,-47.3298 209.7093,-36.0904"/>
    </g>
    <!-- E2 -->
    <g id="node7" class="node">
      <title>E2</title>
      <polygon fill="#ffffff" stroke="#c0c0c0" stroke-dasharray="5,2" points="511.5705,-36 263.7899,-36 263.7899,0 511.5705,0 511.5705,-36"/>
      <text text-anchor="middle" x="387.6802" y="-14.4" font-family="Arial" font-size="12.00" fill="#000000">E2: Exposure by LLM-powered applications</text>
    </g>
    <!-- OutputClassification&#45;&gt;E2 -->
    <g id="edge6" class="edge">
      <title>OutputClassification-&gt;E2</title>
      <path fill="none" stroke="#c0c0c0" stroke-dasharray="5,2" d="M310.8937,-72.9551C326.5862,-61.7241 346.6989,-47.3298 362.4033,-36.0904"/>
    </g>
    <!-- E3 -->
    <g id="node8" class="node">
      <title>E3</title>
      <polygon fill="#ffffff" stroke="#c0c0c0" stroke-dasharray="5,2" points="747.894,-36 529.4664,-36 529.4664,0 747.894,0 747.894,-36"/>
      <text text-anchor="middle" x="638.6802" y="-14.4" font-family="Arial" font-size="12.00" fill="#000000">E3: Exposure given image capabilities</text>
    </g>
    <!-- OutputClassification&#45;&gt;E3 -->
    <g id="edge7" class="edge">
      <title>OutputClassification-&gt;E3</title>
      <path fill="none" stroke="#c0c0c0" stroke-dasharray="5,2" d="M372.9386,-72.9551C427.3491,-61.703 497.1144,-47.2757 551.5085,-36.027"/>
    </g>
  </g>
</svg>
