<?xml version="1.0" encoding="UTF-8" standalone="no"?>
<!DOCTYPE svg PUBLIC "-//W3C//DTD SVG 1.1//EN"
 "http://www.w3.org/Graphics/SVG/1.1/DTD/svg11.dtd">
<!-- Generated by graphviz version 2.43.0 (0)
 -->
<!-- Title: %3 Pages: 1 -->
<svg width="495pt" height="360pt"
 viewBox="0.00 0.00 494.64 360.00" xmlns="http://www.w3.org/2000/svg" xmlns:xlink="http://www.w3.org/1999/xlink">
<g id="graph0" class="graph" transform="scale(0.48 0.48) rotate(0) translate(4 742)">
<title>%3</title>
<polygon fill="white" stroke="transparent" points="-4,4 -4,-742 1021,-742 1021,4 -4,4"/>
<!-- KB -->
<g id="node1" class="node">
<title>KB</title>
<g id="a_node1"><a xlink:title="All reference documents used in the chatbot&#39;s RAG system.">
<polygon fill="lightblue" stroke="lightblue" points="196,-212 0,-212 0,-176 196,-176 196,-212"/>
<text text-anchor="middle" x="98" y="-190.3" font-family="Times,serif" font-size="14.00">Chatbot Knowledge Base</text>
</a>
</g>
</g>
<!-- OSHA -->
<g id="node2" class="node">
<title>OSHA</title>
<g id="a_node2"><a xlink:title="Federal workplace safety standards under 29 CFR 1910.">
<polygon fill="lightyellow" stroke="lightyellow" points="490,-495 487,-499 466,-499 463,-495 233,-495 233,-459 490,-459 490,-495"/>
<text text-anchor="middle" x="361.5" y="-473.3" font-family="Times,serif" font-size="14.00">OSHA Regulations (29 CFR 1910)</text>
</a>
</g>
</g>
<!-- KB&#45;&gt;OSHA -->
<g id="edge1" class="edge">
<title>KB&#45;&gt;OSHA</title>
<path fill="none" stroke="black" d="M115.76,-212.13C160.76,-260.84 284.38,-394.62 336.66,-451.2"/>
<polygon fill="black" stroke="black" points="334.19,-453.68 343.55,-458.65 339.33,-448.93 334.19,-453.68"/>
</g>
<!-- NIOSH -->
<g id="node3" class="node">
<title>NIOSH</title>
<g id="a_node3"><a xlink:title="NIOSH research and safety guidance documents.">
<polygon fill="lightyellow" stroke="lightyellow" points="441,-212 438,-216 417,-216 414,-212 282,-212 282,-176 441,-176 441,-212"/>
<text text-anchor="middle" x="361.5" y="-190.3" font-family="Times,serif" font-size="14.00">NIOSH Publications</text>
</a>
</g>
</g>
<!-- KB&#45;&gt;NIOSH -->
<g id="edge2" class="edge">
<title>KB&#45;&gt;NIOSH</title>
<path fill="none" stroke="black" d="M196,-194C220.67,-194 247.07,-194 271.33,-194"/>
<polygon fill="black" stroke="black" points="271.59,-197.5 281.59,-194 271.59,-190.5 271.59,-197.5"/>
</g>
<!-- Guides -->
<g id="node4" class="node">
<title>Guides</title>
<g id="a_node4"><a xlink:title="Supplementary OSHA guides and manuals for specific hazards.">
<polygon fill="lightyellow" stroke="lightyellow" points="491,-131 488,-135 467,-135 464,-131 232,-131 232,-95 491,-95 491,-131"/>
<text text-anchor="middle" x="361.5" y="-109.3" font-family="Times,serif" font-size="14.00">OSHA Guides / Technical Manuals</text>
</a>
</g>
</g>
<!-- KB&#45;&gt;Guides -->
<g id="edge3" class="edge">
<title>KB&#45;&gt;Guides</title>
<path fill="none" stroke="black" d="M157.36,-175.92C197.44,-163.51 250.77,-146.99 292.73,-133.99"/>
<polygon fill="black" stroke="black" points="293.8,-137.32 302.32,-131.02 291.73,-130.64 293.8,-137.32"/>
</g>
<!-- 1910.147 -->
<g id="node5" class="node">
<title>1910.147</title>
<g id="a_node5"><a xlink:title="Requirements for controlling hazardous energy during servicing and maintenance.">
<polygon fill="none" stroke="lightgrey" points="873.5,-738 664.5,-738 664.5,-702 879.5,-702 879.5,-732 873.5,-738"/>
<polyline fill="none" stroke="lightgrey" points="873.5,-738 873.5,-732 "/>
<polyline fill="none" stroke="lightgrey" points="879.5,-732 873.5,-732 "/>
<text text-anchor="middle" x="772" y="-716.3" font-family="Times,serif" font-size="14.00">Lockout/Tagout [§1910.147]</text>
</a>
</g>
</g>
<!-- OSHA&#45;&gt;1910.147 -->
<g id="edge4" class="edge">
<title>OSHA&#45;&gt;1910.147</title>
<path fill="none" stroke="black" d="M370.17,-495.2C389.35,-538.2 443.93,-645.98 527,-693 565.11,-714.57 611.95,-723.18 654.35,-725.75"/>
<polygon fill="black" stroke="black" points="654.3,-729.25 664.46,-726.25 654.65,-722.26 654.3,-729.25"/>
</g>
<!-- 1910.178 -->
<g id="node6" class="node">
<title>1910.178</title>
<g id="a_node6"><a xlink:title="Safety standards for forklifts and powered trucks.">
<polygon fill="none" stroke="lightgrey" points="913,-684 625,-684 625,-648 919,-648 919,-678 913,-684"/>
<polyline fill="none" stroke="lightgrey" points="913,-684 913,-678 "/>
<polyline fill="none" stroke="lightgrey" points="919,-678 913,-678 "/>
<text text-anchor="middle" x="772" y="-662.3" font-family="Times,serif" font-size="14.00">Powered Industrial Trucks [§1910.178]</text>
</a>
</g>
</g>
<!-- OSHA&#45;&gt;1910.178 -->
<g id="edge5" class="edge">
<title>OSHA&#45;&gt;1910.178</title>
<path fill="none" stroke="black" d="M374.42,-495.03C398.52,-529.79 456.78,-605.6 527,-639 553.97,-651.83 584.46,-659.66 614.52,-664.26"/>
<polygon fill="black" stroke="black" points="614.3,-667.77 624.69,-665.7 615.28,-660.83 614.3,-667.77"/>
</g>
<!-- 1910.211 -->
<g id="node7" class="node">
<title>1910.211</title>
<g id="a_node7"><a xlink:title="Key definitions used in OSHA’s machine guarding rules.">
<polygon fill="none" stroke="lightgrey" points="931.5,-630 606.5,-630 606.5,-594 937.5,-594 937.5,-624 931.5,-630"/>
<polyline fill="none" stroke="lightgrey" points="931.5,-630 931.5,-624 "/>
<polyline fill="none" stroke="lightgrey" points="937.5,-624 931.5,-624 "/>
<text text-anchor="middle" x="772" y="-608.3" font-family="Times,serif" font-size="14.00">Definitions – Machine Guarding [§1910.211]</text>
</a>
</g>
</g>
<!-- OSHA&#45;&gt;1910.211 -->
<g id="edge6" class="edge">
<title>OSHA&#45;&gt;1910.211</title>
<path fill="none" stroke="black" d="M383.07,-495.23C412.6,-520.23 469.78,-564.4 527,-585 548.93,-592.9 572.62,-598.65 596.33,-602.82"/>
<polygon fill="black" stroke="black" points="596.05,-606.32 606.49,-604.51 597.2,-599.41 596.05,-606.32"/>
</g>
<!-- 1910.212 -->
<g id="node8" class="node">
<title>1910.212</title>
<g id="a_node8"><a xlink:title="General machine guarding rules to protect operators and others.">
<polygon fill="none" stroke="lightgrey" points="960,-576 578,-576 578,-540 966,-540 966,-570 960,-576"/>
<polyline fill="none" stroke="lightgrey" points="960,-576 960,-570 "/>
<polyline fill="none" stroke="lightgrey" points="966,-570 960,-570 "/>
<text text-anchor="middle" x="772" y="-554.3" font-family="Times,serif" font-size="14.00">General Requirements for All Machines [§1910.212]</text>
</a>
</g>
</g>
<!-- OSHA&#45;&gt;1910.212 -->
<g id="edge7" class="edge">
<title>OSHA&#45;&gt;1910.212</title>
<path fill="none" stroke="black" d="M408.94,-495.11C441.5,-507.09 486.32,-522.17 527,-531 540.24,-533.87 553.95,-536.45 567.82,-538.76"/>
<polygon fill="black" stroke="black" points="567.5,-542.25 577.93,-540.39 568.62,-535.34 567.5,-542.25"/>
</g>
<!-- 1910.213 -->
<g id="node9" class="node">
<title>1910.213</title>
<g id="a_node9"><a xlink:title="Guarding and operational requirements for woodworking machines.">
<polygon fill="none" stroke="lightgrey" points="907.5,-522 630.5,-522 630.5,-486 913.5,-486 913.5,-516 907.5,-522"/>
<polyline fill="none" stroke="lightgrey" points="907.5,-522 907.5,-516 "/>
<polyline fill="none" stroke="lightgrey" points="913.5,-516 907.5,-516 "/>
<text text-anchor="middle" x="772" y="-500.3" font-family="Times,serif" font-size="14.00">Woodworking Machinery [§1910.213]</text>
</a>
</g>
</g>
<!-- OSHA&#45;&gt;1910.213 -->
<g id="edge8" class="edge">
<title>OSHA&#45;&gt;1910.213</title>
<path fill="none" stroke="black" d="M490.07,-485.43C531.25,-488.15 577.29,-491.2 619.99,-494.02"/>
<polygon fill="black" stroke="black" points="619.99,-497.53 630.2,-494.69 620.45,-490.54 619.99,-497.53"/>
</g>
<!-- 1910.215 -->
<g id="node10" class="node">
<title>1910.215</title>
<g id="a_node10"><a xlink:title="Safety specs for abrasive wheel machinery, including guards and work rests.">
<polygon fill="none" stroke="lightgrey" points="914.5,-468 623.5,-468 623.5,-432 920.5,-432 920.5,-462 914.5,-468"/>
<polyline fill="none" stroke="lightgrey" points="914.5,-468 914.5,-462 "/>
<polyline fill="none" stroke="lightgrey" points="920.5,-462 914.5,-462 "/>
<text text-anchor="middle" x="772" y="-446.3" font-family="Times,serif" font-size="14.00">Abrasive Wheel Machinery [§1910.215]</text>
</a>
</g>
</g>
<!-- OSHA&#45;&gt;1910.215 -->
<g id="edge9" class="edge">
<title>OSHA&#45;&gt;1910.215</title>
<path fill="none" stroke="black" d="M490.07,-468.57C529.11,-465.99 572.52,-463.12 613.31,-460.42"/>
<polygon fill="black" stroke="black" points="613.59,-463.91 623.34,-459.76 613.13,-456.93 613.59,-463.91"/>
</g>
<!-- 1910.217 -->
<g id="node11" class="node">
<title>1910.217</title>
<g id="a_node11"><a xlink:title="Safety requirements for mechanical power press operation and maintenance.">
<polygon fill="none" stroke="lightgrey" points="914,-414 624,-414 624,-378 920,-378 920,-408 914,-414"/>
<polyline fill="none" stroke="lightgrey" points="914,-414 914,-408 "/>
<polyline fill="none" stroke="lightgrey" points="920,-408 914,-408 "/>
<text text-anchor="middle" x="772" y="-392.3" font-family="Times,serif" font-size="14.00">Mechanical Power Presses [§1910.217]</text>
</a>
</g>
</g>
<!-- OSHA&#45;&gt;1910.217 -->
<g id="edge10" class="edge">
<title>OSHA&#45;&gt;1910.217</title>
<path fill="none" stroke="black" d="M408.94,-458.89C441.5,-446.91 486.32,-431.83 527,-423 554.76,-416.98 584.6,-412.26 613.56,-408.58"/>
<polygon fill="black" stroke="black" points="614.26,-412.02 623.76,-407.32 613.4,-405.07 614.26,-412.02"/>
</g>
<!-- 1910.218 -->
<g id="node12" class="node">
<title>1910.218</title>
<g id="a_node12"><a xlink:title="Safety practices and guarding for forging machinery.">
<polygon fill="none" stroke="lightgrey" points="883,-360 655,-360 655,-324 889,-324 889,-354 883,-360"/>
<polyline fill="none" stroke="lightgrey" points="883,-360 883,-354 "/>
<polyline fill="none" stroke="lightgrey" points="889,-354 883,-354 "/>
<text text-anchor="middle" x="772" y="-338.3" font-family="Times,serif" font-size="14.00">Forging Machines [§1910.218]</text>
</a>
</g>
</g>
<!-- OSHA&#45;&gt;1910.218 -->
<g id="edge11" class="edge">
<title>OSHA&#45;&gt;1910.218</title>
<path fill="none" stroke="black" d="M383.07,-458.77C412.6,-433.77 469.78,-389.6 527,-369 563.99,-355.68 606.01,-348.46 644.63,-344.66"/>
<polygon fill="black" stroke="black" points="645.26,-348.12 654.9,-343.72 644.62,-341.15 645.26,-348.12"/>
</g>
<!-- 1910.219 -->
<g id="node13" class="node">
<title>1910.219</title>
<g id="a_node13"><a xlink:title="Guarding requirements for belts, pulleys, gears, and other transmission parts.">
<polygon fill="none" stroke="lightgrey" points="972.5,-306 565.5,-306 565.5,-270 978.5,-270 978.5,-300 972.5,-306"/>
<polyline fill="none" stroke="lightgrey" points="972.5,-306 972.5,-300 "/>
<polyline fill="none" stroke="lightgrey" points="978.5,-300 972.5,-300 "/>
<text text-anchor="middle" x="772" y="-284.3" font-family="Times,serif" font-size="14.00">Mechanical Power Transmission Apparatus [§1910.219]</text>
</a>
</g>
</g>
<!-- OSHA&#45;&gt;1910.219 -->
<g id="edge12" class="edge">
<title>OSHA&#45;&gt;1910.219</title>
<path fill="none" stroke="black" d="M374.42,-458.97C398.52,-424.21 456.78,-348.4 527,-315 536.26,-310.6 545.94,-306.78 555.87,-303.48"/>
<polygon fill="black" stroke="black" points="556.96,-306.81 565.46,-300.48 554.87,-300.13 556.96,-306.81"/>
</g>
<!-- 2011&#45;156 -->
<g id="node14" class="node">
<title>2011&#45;156</title>
<g id="a_node14"><a xlink:title="Guidance on implementing LOTO programs to protect workers.">
<polygon fill="none" stroke="lightgrey" points="957,-252 581,-252 581,-216 963,-216 963,-246 957,-252"/>
<polyline fill="none" stroke="lightgrey" points="957,-252 957,-246 "/>
<polyline fill="none" stroke="lightgrey" points="963,-246 957,-246 "/>
<text text-anchor="middle" x="772" y="-230.3" font-family="Times,serif" font-size="14.00">Using Lockout/Tagout to Prevent Injury (2011&#45;156)</text>
</a>
</g>
</g>
<!-- NIOSH&#45;&gt;2011&#45;156 -->
<g id="edge13" class="edge">
<title>NIOSH&#45;&gt;2011&#45;156</title>
<path fill="none" stroke="black" d="M441.26,-201.71C480.12,-205.52 528.86,-210.29 576.86,-214.99"/>
<polygon fill="black" stroke="black" points="576.79,-218.5 587.08,-215.99 577.47,-211.53 576.79,-218.5"/>
</g>
<!-- 85&#45;103 -->
<g id="node15" class="node">
<title>85&#45;103</title>
<g id="a_node15"><a xlink:title="Safety strategies for preventing robot&#45;related injuries.">
<polygon fill="none" stroke="lightgrey" points="948.5,-198 589.5,-198 589.5,-162 954.5,-162 954.5,-192 948.5,-198"/>
<polyline fill="none" stroke="lightgrey" points="948.5,-198 948.5,-192 "/>
<polyline fill="none" stroke="lightgrey" points="954.5,-192 948.5,-192 "/>
<text text-anchor="middle" x="772" y="-176.3" font-family="Times,serif" font-size="14.00">Preventing Injury of Workers by Robots (85&#45;103)</text>
</a>
</g>
</g>
<!-- NIOSH&#45;&gt;85&#45;103 -->
<g id="edge14" class="edge">
<title>NIOSH&#45;&gt;85&#45;103</title>
<path fill="none" stroke="black" d="M441.26,-191.3C480.74,-189.95 530.43,-188.24 579.17,-186.57"/>
<polygon fill="black" stroke="black" points="579.35,-190.07 589.22,-186.23 579.11,-183.07 579.35,-190.07"/>
</g>
<!-- OTM -->
<g id="node16" class="node">
<title>OTM</title>
<g id="a_node16"><a xlink:title="Technical guidance on hazards, safeguarding, and risk assessments for industrial robots.">
<polygon fill="none" stroke="lightgrey" points="941.5,-144 596.5,-144 596.5,-108 947.5,-108 947.5,-138 941.5,-144"/>
<polyline fill="none" stroke="lightgrey" points="941.5,-144 941.5,-138 "/>
<polyline fill="none" stroke="lightgrey" points="947.5,-138 941.5,-138 "/>
<text text-anchor="middle" x="772" y="-122.3" font-family="Times,serif" font-size="14.00">OSHA Technical Manual – IV: Industrial Robots</text>
</a>
</g>
</g>
<!-- Guides&#45;&gt;OTM -->
<g id="edge15" class="edge">
<title>Guides&#45;&gt;OTM</title>
<path fill="none" stroke="black" d="M491.19,-117.1C521.26,-118.05 553.88,-119.09 585.86,-120.11"/>
<polygon fill="black" stroke="black" points="586.11,-123.62 596.22,-120.44 586.34,-116.62 586.11,-123.62"/>
</g>
<!-- OSHA3120 -->
<g id="node17" class="node">
<title>OSHA3120</title>
<g id="a_node17"><a xlink:title="OSHA handbook outlining lockout/tagout procedures.">
<polygon fill="none" stroke="lightgrey" points="987,-90 551,-90 551,-54 993,-54 993,-84 987,-90"/>
<polyline fill="none" stroke="lightgrey" points="987,-90 987,-84 "/>
<polyline fill="none" stroke="lightgrey" points="993,-84 987,-84 "/>
<text text-anchor="middle" x="772" y="-68.3" font-family="Times,serif" font-size="14.00">Lockout/Tagout: Control of Hazardous Energy (OSHA 3120)</text>
</a>
</g>
</g>
<!-- Guides&#45;&gt;OSHA3120 -->
<g id="edge16" class="edge">
<title>Guides&#45;&gt;OSHA3120</title>
<path fill="none" stroke="black" d="M491.19,-100.08C519.77,-97.22 550.64,-94.12 581.08,-91.06"/>
<polygon fill="black" stroke="black" points="581.79,-94.51 591.39,-90.03 581.09,-87.54 581.79,-94.51"/>
</g>
<!-- OSHA3170 -->
<g id="node18" class="node">
<title>OSHA3170</title>
<g id="a_node18"><a xlink:title="OSHA guide to machine guarding methods to prevent injuries.">
<polygon fill="none" stroke="lightgrey" points="1011,-36 527,-36 527,0 1017,0 1017,-30 1011,-36"/>
<polyline fill="none" stroke="lightgrey" points="1011,-36 1011,-30 "/>
<polyline fill="none" stroke="lightgrey" points="1017,-30 1011,-30 "/>
<text text-anchor="middle" x="772" y="-14.3" font-family="Times,serif" font-size="14.00">Safeguarding Equipment &amp; Preventing Amputations (OSHA 3170)</text>
</a>
</g>
</g>
<!-- Guides&#45;&gt;OSHA3170 -->
<g id="edge17" class="edge">
<title>Guides&#45;&gt;OSHA3170</title>
<path fill="none" stroke="black" d="M398.08,-94.85C430.74,-79.03 480.9,-56.82 527,-45 537.01,-42.43 547.32,-40.11 557.77,-38.01"/>
<polygon fill="black" stroke="black" points="558.68,-41.39 567.83,-36.06 557.34,-34.52 558.68,-41.39"/>
</g>
</g>
</svg>
