<?xml version="1.0" encoding="UTF-8" standalone="no"?>
<!DOCTYPE svg PUBLIC "-//W3C//DTD SVG 1.1//EN"
 "http://www.w3.org/Graphics/SVG/1.1/DTD/svg11.dtd">
<!-- Generated by graphviz version 12.2.1 (20241206.2353)
 -->
<!-- Pages: 1 -->
<svg width="871pt" height="864pt"
 viewBox="0.00 0.00 653.34 648.00" xmlns="http://www.w3.org/2000/svg" xmlns:xlink="http://www.w3.org/1999/xlink">
<g id="graph0" class="graph" transform="scale(0.949659 0.949659) rotate(0) translate(14.4 895.4)">
<polygon fill="white" stroke="none" points="-14.4,14.4 -14.4,-895.4 902.9,-895.4 902.9,14.4 -14.4,14.4"/>
<!-- KB -->
<g id="node1" class="node">
<title>KB</title>
<g id="a_node1"><a xlink:title="All reference documents used in the chatbot&#39;s RAG system.">
<polygon fill="lightblue" stroke="lightblue" points="168.25,-263 0,-263 0,-227 168.25,-227 168.25,-263"/>
<text text-anchor="middle" x="84.12" y="-239.57" font-family="Helvetica,sans-Serif" font-size="14.00">Chatbot Knowledge Base</text>
</a>
</g>
</g>
<!-- OSHA -->
<g id="node2" class="node">
<title>OSHA</title>
<g id="a_node2"><a xlink:title="Federal workplace safety standards under 29 CFR 1910.">
<polygon fill="lightyellow" stroke="lightyellow" points="434.62,-588 431.62,-592 410.62,-592 407.62,-588 212.38,-588 212.38,-552 434.62,-552 434.62,-588"/>
<text text-anchor="middle" x="323.5" y="-564.58" font-family="Helvetica,sans-Serif" font-size="14.00">OSHA Regulations (29 CFR 1910)</text>
</a>
</g>
</g>
<!-- KB&#45;&gt;OSHA -->
<g id="edge1" class="edge">
<title>KB&#45;&gt;OSHA</title>
<path fill="none" stroke="black" d="M98.57,-263.4C138.31,-317.82 255.4,-478.13 302.52,-542.65"/>
<polygon fill="black" stroke="black" points="299.59,-544.56 308.31,-550.58 305.24,-540.44 299.59,-544.56"/>
</g>
<!-- NIOSH -->
<g id="node3" class="node">
<title>NIOSH</title>
<g id="a_node3"><a xlink:title="NIOSH research and safety guidance documents.">
<polygon fill="lightyellow" stroke="lightyellow" points="391.5,-263 388.5,-267 367.5,-267 364.5,-263 255.5,-263 255.5,-227 391.5,-227 391.5,-263"/>
<text text-anchor="middle" x="323.5" y="-239.57" font-family="Helvetica,sans-Serif" font-size="14.00">NIOSH Publications</text>
</a>
</g>
</g>
<!-- KB&#45;&gt;NIOSH -->
<g id="edge2" class="edge">
<title>KB&#45;&gt;NIOSH</title>
<path fill="none" stroke="black" d="M168.48,-245C192.93,-245 219.58,-245 243.73,-245"/>
<polygon fill="black" stroke="black" points="243.49,-248.5 253.49,-245 243.49,-241.5 243.49,-248.5"/>
</g>
<!-- Guides -->
<g id="node4" class="node">
<title>Guides</title>
<g id="a_node4"><a xlink:title="Supplementary OSHA guides and manuals for specific hazards.">
<polygon fill="lightyellow" stroke="lightyellow" points="435.75,-133 432.75,-137 411.75,-137 408.75,-133 211.25,-133 211.25,-97 435.75,-97 435.75,-133"/>
<text text-anchor="middle" x="323.5" y="-109.58" font-family="Helvetica,sans-Serif" font-size="14.00">OSHA Guides / Technical Manuals</text>
</a>
</g>
</g>
<!-- KB&#45;&gt;Guides -->
<g id="edge3" class="edge">
<title>KB&#45;&gt;Guides</title>
<path fill="none" stroke="black" d="M118.88,-226.51C160.89,-203.51 232.7,-164.18 278.85,-138.9"/>
<polygon fill="black" stroke="black" points="280.44,-142.02 287.53,-134.15 277.08,-135.88 280.44,-142.02"/>
</g>
<!-- 1910.147 -->
<g id="node5" class="node">
<title>1910.147</title>
<g id="a_node5"><a xlink:title="Requirements for controlling hazardous energy during servicing and maintenance.">
<polygon fill="none" stroke="lightgrey" points="768.88,-881 592.38,-881 592.38,-845 774.88,-845 774.88,-875 768.88,-881"/>
<polyline fill="none" stroke="lightgrey" points="768.88,-881 768.88,-875"/>
<polyline fill="none" stroke="lightgrey" points="774.88,-875 768.88,-875"/>
<text text-anchor="middle" x="683.62" y="-857.58" font-family="Helvetica,sans-Serif" font-size="14.00">Lockout/Tagout [§1910.147]</text>
</a>
</g>
</g>
<!-- OSHA&#45;&gt;1910.147 -->
<g id="edge4" class="edge">
<title>OSHA&#45;&gt;1910.147</title>
<path fill="none" stroke="black" d="M329.38,-588.3C343.39,-636.93 388.6,-769.81 478.75,-831 508.37,-851.11 545.94,-860.39 580.73,-864.24"/>
<polygon fill="black" stroke="black" points="580.12,-867.7 590.41,-865.16 580.78,-860.73 580.12,-867.7"/>
</g>
<!-- 1910.178 -->
<g id="node6" class="node">
<title>1910.178</title>
<g id="a_node6"><a xlink:title="Safety standards for forklifts and powered trucks.">
<polygon fill="none" stroke="lightgrey" points="801.12,-816 560.12,-816 560.12,-780 807.12,-780 807.12,-810 801.12,-816"/>
<polyline fill="none" stroke="lightgrey" points="801.12,-816 801.12,-810"/>
<polyline fill="none" stroke="lightgrey" points="807.12,-810 801.12,-810"/>
<text text-anchor="middle" x="683.62" y="-792.58" font-family="Helvetica,sans-Serif" font-size="14.00">Powered Industrial Trucks [§1910.178]</text>
</a>
</g>
</g>
<!-- OSHA&#45;&gt;1910.178 -->
<g id="edge5" class="edge">
<title>OSHA&#45;&gt;1910.178</title>
<path fill="none" stroke="black" d="M332.98,-588.35C352.43,-628.17 404.4,-722.45 478.75,-766 499.86,-778.37 524.22,-786.41 548.59,-791.56"/>
<polygon fill="black" stroke="black" points="547.8,-794.98 558.29,-793.44 549.13,-788.1 547.8,-794.98"/>
</g>
<!-- 1910.211 -->
<g id="node7" class="node">
<title>1910.211</title>
<g id="a_node7"><a xlink:title="Key definitions used in OSHA’s machine guarding rules.">
<polygon fill="none" stroke="lightgrey" points="817.62,-751 543.62,-751 543.62,-715 823.62,-715 823.62,-745 817.62,-751"/>
<polyline fill="none" stroke="lightgrey" points="817.62,-751 817.62,-745"/>
<polyline fill="none" stroke="lightgrey" points="823.62,-745 817.62,-745"/>
<text text-anchor="middle" x="683.62" y="-727.58" font-family="Helvetica,sans-Serif" font-size="14.00">Definitions – Machine Guarding [§1910.211]</text>
</a>
</g>
</g>
<!-- OSHA&#45;&gt;1910.211 -->
<g id="edge6" class="edge">
<title>OSHA&#45;&gt;1910.211</title>
<path fill="none" stroke="black" d="M339.88,-588.39C365.42,-617.56 419.67,-673.91 478.75,-701 495.48,-708.67 513.71,-714.55 532.16,-719.05"/>
<polygon fill="black" stroke="black" points="531.35,-722.46 541.88,-721.28 532.91,-715.63 531.35,-722.46"/>
</g>
<!-- 1910.212 -->
<g id="node8" class="node">
<title>1910.212</title>
<g id="a_node8"><a xlink:title="General machine guarding rules to protect operators and others.">
<polygon fill="none" stroke="lightgrey" points="841.62,-686 519.62,-686 519.62,-650 847.62,-650 847.62,-680 841.62,-686"/>
<polyline fill="none" stroke="lightgrey" points="841.62,-686 841.62,-680"/>
<polyline fill="none" stroke="lightgrey" points="847.62,-680 841.62,-680"/>
<text text-anchor="middle" x="683.62" y="-662.58" font-family="Helvetica,sans-Serif" font-size="14.00">General Requirements for All Machines [§1910.212]</text>
</a>
</g>
</g>
<!-- OSHA&#45;&gt;1910.212 -->
<g id="edge7" class="edge">
<title>OSHA&#45;&gt;1910.212</title>
<path fill="none" stroke="black" d="M360.34,-588.37C391.02,-603.34 436.76,-623.93 478.75,-636 493.72,-640.3 509.48,-644.07 525.34,-647.35"/>
<polygon fill="black" stroke="black" points="524.34,-650.72 534.84,-649.25 525.72,-643.86 524.34,-650.72"/>
</g>
<!-- 1910.213 -->
<g id="node9" class="node">
<title>1910.213</title>
<g id="a_node9"><a xlink:title="Guarding and operational requirements for woodworking machines.">
<polygon fill="none" stroke="lightgrey" points="797.38,-621 563.88,-621 563.88,-585 803.38,-585 803.38,-615 797.38,-621"/>
<polyline fill="none" stroke="lightgrey" points="797.38,-621 797.38,-615"/>
<polyline fill="none" stroke="lightgrey" points="803.38,-615 797.38,-615"/>
<text text-anchor="middle" x="683.62" y="-597.58" font-family="Helvetica,sans-Serif" font-size="14.00">Woodworking Machinery [§1910.213]</text>
</a>
</g>
</g>
<!-- OSHA&#45;&gt;1910.213 -->
<g id="edge8" class="edge">
<title>OSHA&#45;&gt;1910.213</title>
<path fill="none" stroke="black" d="M434.87,-580.17C472,-583.59 513.78,-587.44 552.3,-590.99"/>
<polygon fill="black" stroke="black" points="551.81,-594.46 562.09,-591.89 552.46,-587.49 551.81,-594.46"/>
</g>
<!-- 1910.215 -->
<g id="node10" class="node">
<title>1910.215</title>
<g id="a_node10"><a xlink:title="Safety specs for abrasive wheel machinery, including guards and work rests.">
<polygon fill="none" stroke="lightgrey" points="804.12,-556 557.12,-556 557.12,-520 810.12,-520 810.12,-550 804.12,-556"/>
<polyline fill="none" stroke="lightgrey" points="804.12,-556 804.12,-550"/>
<polyline fill="none" stroke="lightgrey" points="810.12,-550 804.12,-550"/>
<text text-anchor="middle" x="683.62" y="-532.58" font-family="Helvetica,sans-Serif" font-size="14.00">Abrasive Wheel Machinery [§1910.215]</text>
</a>
</g>
</g>
<!-- OSHA&#45;&gt;1910.215 -->
<g id="edge9" class="edge">
<title>OSHA&#45;&gt;1910.215</title>
<path fill="none" stroke="black" d="M434.87,-560.14C469.79,-557.02 508.82,-553.53 545.39,-550.26"/>
<polygon fill="black" stroke="black" points="545.5,-553.77 555.14,-549.39 544.87,-546.79 545.5,-553.77"/>
</g>
<!-- 1910.217 -->
<g id="node11" class="node">
<title>1910.217</title>
<g id="a_node11"><a xlink:title="Safety requirements for mechanical power press operation and maintenance.">
<polygon fill="none" stroke="lightgrey" points="804.88,-491 556.38,-491 556.38,-455 810.88,-455 810.88,-485 804.88,-491"/>
<polyline fill="none" stroke="lightgrey" points="804.88,-491 804.88,-485"/>
<polyline fill="none" stroke="lightgrey" points="810.88,-485 804.88,-485"/>
<text text-anchor="middle" x="683.62" y="-467.57" font-family="Helvetica,sans-Serif" font-size="14.00">Mechanical Power Presses [§1910.217]</text>
</a>
</g>
</g>
<!-- OSHA&#45;&gt;1910.217 -->
<g id="edge10" class="edge">
<title>OSHA&#45;&gt;1910.217</title>
<path fill="none" stroke="black" d="M361.97,-551.56C392.67,-537.16 437.61,-517.69 478.75,-506 499.85,-500 522.5,-494.99 544.76,-490.83"/>
<polygon fill="black" stroke="black" points="545.3,-494.29 554.51,-489.06 544.05,-487.4 545.3,-494.29"/>
</g>
<!-- 1910.218 -->
<g id="node12" class="node">
<title>1910.218</title>
<g id="a_node12"><a xlink:title="Safety practices and guarding for forging machinery.">
<polygon fill="none" stroke="lightgrey" points="777.12,-426 584.12,-426 584.12,-390 783.12,-390 783.12,-420 777.12,-426"/>
<polyline fill="none" stroke="lightgrey" points="777.12,-426 777.12,-420"/>
<polyline fill="none" stroke="lightgrey" points="783.12,-420 777.12,-420"/>
<text text-anchor="middle" x="683.62" y="-402.57" font-family="Helvetica,sans-Serif" font-size="14.00">Forging Machines [§1910.218]</text>
</a>
</g>
</g>
<!-- OSHA&#45;&gt;1910.218 -->
<g id="edge11" class="edge">
<title>OSHA&#45;&gt;1910.218</title>
<path fill="none" stroke="black" d="M339.96,-551.93C365.61,-523.25 420,-467.83 478.75,-441 507.85,-427.71 541.43,-419.67 572.84,-414.84"/>
<polygon fill="black" stroke="black" points="572.95,-418.36 582.35,-413.48 571.95,-411.43 572.95,-418.36"/>
</g>
<!-- 1910.219 -->
<g id="node13" class="node">
<title>1910.219</title>
<g id="a_node13"><a xlink:title="Guarding requirements for belts, pulleys, gears, and other transmission parts.">
<polygon fill="none" stroke="lightgrey" points="853.25,-361 508,-361 508,-325 859.25,-325 859.25,-355 853.25,-361"/>
<polyline fill="none" stroke="lightgrey" points="853.25,-361 853.25,-355"/>
<polyline fill="none" stroke="lightgrey" points="859.25,-355 853.25,-355"/>
<text text-anchor="middle" x="683.62" y="-337.57" font-family="Helvetica,sans-Serif" font-size="14.00">Mechanical Power Transmission Apparatus [§1910.219]</text>
</a>
</g>
</g>
<!-- OSHA&#45;&gt;1910.219 -->
<g id="edge12" class="edge">
<title>OSHA&#45;&gt;1910.219</title>
<path fill="none" stroke="black" d="M333.19,-551.57C352.9,-512.03 405.04,-419.16 478.75,-376 485.3,-372.17 492.16,-368.74 499.23,-365.68"/>
<polygon fill="black" stroke="black" points="500.36,-369 508.33,-362.02 497.75,-362.5 500.36,-369"/>
</g>
<!-- 2011&#45;156 -->
<g id="node14" class="node">
<title>2011&#45;156</title>
<g id="a_node14"><a xlink:title="Guidance on implementing LOTO programs to protect workers.">
<polygon fill="none" stroke="lightgrey" points="836,-296 525.25,-296 525.25,-260 842,-260 842,-290 836,-296"/>
<polyline fill="none" stroke="lightgrey" points="836,-296 836,-290"/>
<polyline fill="none" stroke="lightgrey" points="842,-290 836,-290"/>
<text text-anchor="middle" x="683.62" y="-272.57" font-family="Helvetica,sans-Serif" font-size="14.00">Using Lockout/Tagout to Prevent Injury (2011&#45;156)</text>
</a>
</g>
</g>
<!-- NIOSH&#45;&gt;2011&#45;156 -->
<g id="edge13" class="edge">
<title>NIOSH&#45;&gt;2011&#45;156</title>
<path fill="none" stroke="black" d="M391.86,-251.21C426.53,-254.4 470.5,-258.45 513.68,-262.43"/>
<polygon fill="black" stroke="black" points="513.15,-265.9 523.43,-263.33 513.79,-258.93 513.15,-265.9"/>
</g>
<!-- 85&#45;103 -->
<g id="node15" class="node">
<title>85&#45;103</title>
<g id="a_node15"><a xlink:title="Safety strategies for preventing robot&#45;related injuries.">
<polygon fill="none" stroke="lightgrey" points="830.38,-231 530.88,-231 530.88,-195 836.38,-195 836.38,-225 830.38,-231"/>
<polyline fill="none" stroke="lightgrey" points="830.38,-231 830.38,-225"/>
<polyline fill="none" stroke="lightgrey" points="836.38,-225 830.38,-225"/>
<text text-anchor="middle" x="683.62" y="-207.57" font-family="Helvetica,sans-Serif" font-size="14.00">Preventing Injury of Workers by Robots (85&#45;103)</text>
</a>
</g>
</g>
<!-- NIOSH&#45;&gt;85&#45;103 -->
<g id="edge14" class="edge">
<title>NIOSH&#45;&gt;85&#45;103</title>
<path fill="none" stroke="black" d="M391.86,-238.98C428,-235.75 474.26,-231.62 519.19,-227.6"/>
<polygon fill="black" stroke="black" points="519.42,-231.1 529.07,-226.72 518.8,-224.12 519.42,-231.1"/>
</g>
<!-- OTM -->
<g id="node16" class="node">
<title>OTM</title>
<g id="a_node16"><a xlink:title="Technical guidance on hazards, safeguarding, and risk assessments for industrial robots.">
<polygon fill="none" stroke="lightgrey" points="827.38,-166 533.88,-166 533.88,-130 833.38,-130 833.38,-160 827.38,-166"/>
<polyline fill="none" stroke="lightgrey" points="827.38,-166 827.38,-160"/>
<polyline fill="none" stroke="lightgrey" points="833.38,-160 827.38,-160"/>
<text text-anchor="middle" x="683.62" y="-142.57" font-family="Helvetica,sans-Serif" font-size="14.00">OSHA Technical Manual – IV: Industrial Robots</text>
</a>
</g>
</g>
<!-- Guides&#45;&gt;OTM -->
<g id="edge15" class="edge">
<title>Guides&#45;&gt;OTM</title>
<path fill="none" stroke="black" d="M435.85,-125.26C463.25,-127.79 493.13,-130.54 522.34,-133.23"/>
<polygon fill="black" stroke="black" points="521.71,-136.69 531.99,-134.12 522.35,-129.72 521.71,-136.69"/>
</g>
<!-- OSHA3120 -->
<g id="node17" class="node">
<title>OSHA3120</title>
<g id="a_node17"><a xlink:title="OSHA handbook outlining lockout/tagout procedures.">
<polygon fill="none" stroke="lightgrey" points="864.5,-101 496.75,-101 496.75,-65 870.5,-65 870.5,-95 864.5,-101"/>
<polyline fill="none" stroke="lightgrey" points="864.5,-101 864.5,-95"/>
<polyline fill="none" stroke="lightgrey" points="870.5,-95 864.5,-95"/>
<text text-anchor="middle" x="683.62" y="-77.58" font-family="Helvetica,sans-Serif" font-size="14.00">Lockout/Tagout: Control of Hazardous Energy (OSHA 3120)</text>
</a>
</g>
</g>
<!-- Guides&#45;&gt;OSHA3120 -->
<g id="edge16" class="edge">
<title>Guides&#45;&gt;OSHA3120</title>
<path fill="none" stroke="black" d="M435.85,-105.05C451.68,-103.64 468.34,-102.15 485.22,-100.64"/>
<polygon fill="black" stroke="black" points="485.19,-104.16 494.84,-99.78 484.56,-97.18 485.19,-104.16"/>
</g>
<!-- OSHA3170 -->
<g id="node18" class="node">
<title>OSHA3170</title>
<g id="a_node18"><a xlink:title="OSHA guide to machine guarding methods to prevent injuries.">
<polygon fill="none" stroke="lightgrey" points="882.5,-36 478.75,-36 478.75,0 888.5,0 888.5,-30 882.5,-36"/>
<polyline fill="none" stroke="lightgrey" points="882.5,-36 882.5,-30"/>
<polyline fill="none" stroke="lightgrey" points="888.5,-30 882.5,-30"/>
<text text-anchor="middle" x="683.62" y="-12.57" font-family="Helvetica,sans-Serif" font-size="14.00">Safeguarding Equipment &amp; Preventing Amputations (OSHA 3170)</text>
</a>
</g>
</g>
<!-- Guides&#45;&gt;OSHA3170 -->
<g id="edge17" class="edge">
<title>Guides&#45;&gt;OSHA3170</title>
<path fill="none" stroke="black" d="M361.97,-96.56C392.67,-82.16 437.61,-62.69 478.75,-51 495.32,-46.29 512.84,-42.19 530.39,-38.63"/>
<polygon fill="black" stroke="black" points="530.68,-42.14 539.82,-36.78 529.33,-35.27 530.68,-42.14"/>
</g>
</g>
</svg>
