<?xml version="1.0" encoding="UTF-8" standalone="no"?>
<!DOCTYPE svg PUBLIC "-//W3C//DTD SVG 1.1//EN"
 "http://www.w3.org/Graphics/SVG/1.1/DTD/svg11.dtd">
<!-- Generated by graphviz version 13.1.2 (20250808.2320)
 -->
<!-- Pages: 1 -->
<svg width="699pt" height="864pt"
 viewBox="0.00 0.00 699.00 864.00" xmlns="http://www.w3.org/2000/svg" xmlns:xlink="http://www.w3.org/1999/xlink">
<g id="graph0" class="graph" transform="scale(0.755459 0.755459) rotate(0) translate(14.4 1129.28)">
<polygon fill="white" stroke="none" points="-14.4,14.4 -14.4,-1129.28 910.4,-1129.28 910.4,14.4 -14.4,14.4"/>
<!-- KB -->
<g id="node1" class="node">
<title>KB</title>
<g id="a_node1"><a xlink:title="All reference documents used in the chatbot RAG system.">
<polygon fill="lightblue" stroke="lightblue" points="168.25,-473.88 0,-473.88 0,-437.88 168.25,-437.88 168.25,-473.88"/>
<text xml:space="preserve" text-anchor="middle" x="84.12" y="-450.45" font-family="Helvetica,sans-Serif" font-size="14.00">Chatbot Knowledge Base</text>
</a>
</g>
</g>
<!-- OSHA -->
<g id="node2" class="node">
<title>OSHA</title>
<g id="a_node2"><a xlink:title="Federal workplace safety standards under 29 CFR 1910.">
<polygon fill="lightyellow" stroke="lightyellow" points="431.62,-839.88 428.62,-843.88 407.62,-843.88 404.62,-839.88 209.38,-839.88 209.38,-803.88 431.62,-803.88 431.62,-839.88"/>
<text xml:space="preserve" text-anchor="middle" x="320.5" y="-816.45" font-family="Helvetica,sans-Serif" font-size="14.00">OSHA Regulations (29 CFR 1910)</text>
</a>
</g>
</g>
<!-- KB&#45;&gt;OSHA -->
<g id="edge1" class="edge">
<title>KB&#45;&gt;OSHA</title>
<path fill="none" stroke="black" d="M96.91,-474.28C135.13,-533.96 255.83,-722.45 301.64,-793.98"/>
<polygon fill="black" stroke="black" points="298.68,-795.85 307.02,-802.38 304.57,-792.07 298.68,-795.85"/>
</g>
<!-- NIOSH -->
<g id="node3" class="node">
<title>NIOSH</title>
<g id="a_node3"><a xlink:title="NIOSH research and safety guidance documents.">
<polygon fill="lightyellow" stroke="lightyellow" points="388.5,-504.88 385.5,-508.88 364.5,-508.88 361.5,-504.88 252.5,-504.88 252.5,-468.88 388.5,-468.88 388.5,-504.88"/>
<text xml:space="preserve" text-anchor="middle" x="320.5" y="-481.45" font-family="Helvetica,sans-Serif" font-size="14.00">NIOSH Publications</text>
</a>
</g>
</g>
<!-- KB&#45;&gt;NIOSH -->
<g id="edge2" class="edge">
<title>KB&#45;&gt;NIOSH</title>
<path fill="none" stroke="black" d="M168.75,-466.94C192.25,-470.04 217.71,-473.41 240.91,-476.48"/>
<polygon fill="black" stroke="black" points="240.22,-479.92 250.59,-477.76 241.14,-472.98 240.22,-479.92"/>
</g>
<!-- Guides -->
<g id="node4" class="node">
<title>Guides</title>
<g id="a_node4"><a xlink:title="Supplementary OSHA guides and manuals for specific hazards.">
<polygon fill="lightyellow" stroke="lightyellow" points="432.75,-412.88 429.75,-416.88 408.75,-416.88 405.75,-412.88 208.25,-412.88 208.25,-376.88 432.75,-376.88 432.75,-412.88"/>
<text xml:space="preserve" text-anchor="middle" x="320.5" y="-389.45" font-family="Helvetica,sans-Serif" font-size="14.00">OSHA Guides / Technical Manuals</text>
</a>
</g>
</g>
<!-- KB&#45;&gt;Guides -->
<g id="edge3" class="edge">
<title>KB&#45;&gt;Guides</title>
<path fill="none" stroke="black" d="M156.08,-437.41C181.9,-430.69 211.28,-423.04 237.94,-416.1"/>
<polygon fill="black" stroke="black" points="238.52,-419.57 247.32,-413.66 236.76,-412.79 238.52,-419.57"/>
</g>
<!-- Manuals -->
<g id="node5" class="node">
<title>Manuals</title>
<g id="a_node5"><a xlink:title="OEM and shop manuals: machines and their shared manual categories.">
<polygon fill="lightyellow" stroke="lightyellow" points="382.12,-235.88 379.12,-239.88 358.12,-239.88 355.12,-235.88 258.88,-235.88 258.88,-199.88 382.12,-199.88 382.12,-235.88"/>
<text xml:space="preserve" text-anchor="middle" x="320.5" y="-212.45" font-family="Helvetica,sans-Serif" font-size="14.00">Machine Manuals</text>
</a>
</g>
</g>
<!-- KB&#45;&gt;Manuals -->
<g id="edge4" class="edge">
<title>KB&#45;&gt;Manuals</title>
<path fill="none" stroke="black" d="M103.13,-437.59C144.28,-395.8 245.39,-293.13 293.39,-244.39"/>
<polygon fill="black" stroke="black" points="295.85,-246.88 300.37,-237.3 290.86,-241.97 295.85,-246.88"/>
</g>
<!-- 1910.147 -->
<g id="node6" class="node">
<title>1910.147</title>
<g id="a_node6"><a xlink:title="Requirements for controlling hazardous energy during servicing and maintenance.">
<polygon fill="none" stroke="lightgrey" points="769.62,-1114.88 593.12,-1114.88 593.12,-1078.88 775.62,-1078.88 775.62,-1108.88 769.62,-1114.88"/>
<polyline fill="none" stroke="lightgrey" points="769.62,-1114.88 769.62,-1108.88"/>
<polyline fill="none" stroke="lightgrey" points="775.62,-1108.88 769.62,-1108.88"/>
<text xml:space="preserve" text-anchor="middle" x="684.38" y="-1091.45" font-family="Helvetica,sans-Serif" font-size="14.00">Lockout/Tagout [§1910.147]</text>
</a>
</g>
</g>
<!-- OSHA&#45;&gt;1910.147 -->
<g id="edge5" class="edge">
<title>OSHA&#45;&gt;1910.147</title>
<path fill="none" stroke="black" d="M326.8,-840.15C341.38,-886.8 386.8,-1010.61 472.75,-1066.88 504.54,-1087.68 544.78,-1096.61 581.56,-1099.85"/>
<polygon fill="black" stroke="black" points="581.11,-1103.33 591.34,-1100.57 581.62,-1096.35 581.11,-1103.33"/>
</g>
<!-- 1910.178 -->
<g id="node7" class="node">
<title>1910.178</title>
<g id="a_node7"><a xlink:title="Safety standards for forklifts and powered trucks.">
<polygon fill="none" stroke="lightgrey" points="801.88,-1053.88 560.88,-1053.88 560.88,-1017.88 807.88,-1017.88 807.88,-1047.88 801.88,-1053.88"/>
<polyline fill="none" stroke="lightgrey" points="801.88,-1053.88 801.88,-1047.88"/>
<polyline fill="none" stroke="lightgrey" points="807.88,-1047.88 801.88,-1047.88"/>
<text xml:space="preserve" text-anchor="middle" x="684.38" y="-1030.45" font-family="Helvetica,sans-Serif" font-size="14.00">Powered Industrial Trucks [§1910.178]</text>
</a>
</g>
</g>
<!-- OSHA&#45;&gt;1910.178 -->
<g id="edge6" class="edge">
<title>OSHA&#45;&gt;1910.178</title>
<path fill="none" stroke="black" d="M330.58,-840.33C350.45,-878.51 401.74,-965.96 472.75,-1005.88 495.92,-1018.9 522.71,-1026.97 549.25,-1031.85"/>
<polygon fill="black" stroke="black" points="548.67,-1035.3 559.11,-1033.5 549.82,-1028.4 548.67,-1035.3"/>
</g>
<!-- 1910.211 -->
<g id="node8" class="node">
<title>1910.211</title>
<g id="a_node8"><a xlink:title="Key definitions used in OSHA machine guarding rules.">
<polygon fill="none" stroke="lightgrey" points="814.62,-992.88 548.12,-992.88 548.12,-956.88 820.62,-956.88 820.62,-986.88 814.62,-992.88"/>
<polyline fill="none" stroke="lightgrey" points="814.62,-992.88 814.62,-986.88"/>
<polyline fill="none" stroke="lightgrey" points="820.62,-986.88 814.62,-986.88"/>
<text xml:space="preserve" text-anchor="middle" x="684.38" y="-969.45" font-family="Helvetica,sans-Serif" font-size="14.00">Definitions: Machine Guarding [§1910.211]</text>
</a>
</g>
</g>
<!-- OSHA&#45;&gt;1910.211 -->
<g id="edge7" class="edge">
<title>OSHA&#45;&gt;1910.211</title>
<path fill="none" stroke="black" d="M337.54,-840.12C363.09,-867.87 416,-920.07 472.75,-944.88 492.73,-953.61 514.69,-959.91 536.66,-964.43"/>
<polygon fill="black" stroke="black" points="535.82,-967.84 546.3,-966.29 537.14,-960.96 535.82,-967.84"/>
</g>
<!-- 1910.212 -->
<g id="node9" class="node">
<title>1910.212</title>
<g id="a_node9"><a xlink:title="General machine guarding rules to protect operators and others.">
<polygon fill="none" stroke="lightgrey" points="842.38,-931.88 520.38,-931.88 520.38,-895.88 848.38,-895.88 848.38,-925.88 842.38,-931.88"/>
<polyline fill="none" stroke="lightgrey" points="842.38,-931.88 842.38,-925.88"/>
<polyline fill="none" stroke="lightgrey" points="848.38,-925.88 842.38,-925.88"/>
<text xml:space="preserve" text-anchor="middle" x="684.38" y="-908.45" font-family="Helvetica,sans-Serif" font-size="14.00">General Requirements for All Machines [§1910.212]</text>
</a>
</g>
</g>
<!-- OSHA&#45;&gt;1910.212 -->
<g id="edge8" class="edge">
<title>OSHA&#45;&gt;1910.212</title>
<path fill="none" stroke="black" d="M359.13,-840.36C389.19,-854.37 432.77,-873.01 472.75,-883.88 485.69,-887.39 499.19,-890.51 512.84,-893.28"/>
<polygon fill="black" stroke="black" points="511.84,-896.65 522.32,-895.13 513.18,-889.78 511.84,-896.65"/>
</g>
<!-- 1910.213 -->
<g id="node10" class="node">
<title>1910.213</title>
<g id="a_node10"><a xlink:title="Guarding and operational requirements for woodworking machines.">
<polygon fill="none" stroke="lightgrey" points="798.12,-870.88 564.62,-870.88 564.62,-834.88 804.12,-834.88 804.12,-864.88 798.12,-870.88"/>
<polyline fill="none" stroke="lightgrey" points="798.12,-870.88 798.12,-864.88"/>
<polyline fill="none" stroke="lightgrey" points="804.12,-864.88 798.12,-864.88"/>
<text xml:space="preserve" text-anchor="middle" x="684.38" y="-847.45" font-family="Helvetica,sans-Serif" font-size="14.00">Woodworking Machinery [§1910.213]</text>
</a>
</g>
</g>
<!-- OSHA&#45;&gt;1910.213 -->
<g id="edge9" class="edge">
<title>OSHA&#45;&gt;1910.213</title>
<path fill="none" stroke="black" d="M432.04,-831.34C470.24,-834.62 513.4,-838.31 553.04,-841.71"/>
<polygon fill="black" stroke="black" points="552.62,-845.19 562.89,-842.55 553.22,-838.21 552.62,-845.19"/>
</g>
<!-- 1910.215 -->
<g id="node11" class="node">
<title>1910.215</title>
<g id="a_node11"><a xlink:title="Safety specs for abrasive wheel machinery, including guards and work rests.">
<polygon fill="none" stroke="lightgrey" points="804.88,-809.88 557.88,-809.88 557.88,-773.88 810.88,-773.88 810.88,-803.88 804.88,-809.88"/>
<polyline fill="none" stroke="lightgrey" points="804.88,-809.88 804.88,-803.88"/>
<polyline fill="none" stroke="lightgrey" points="810.88,-803.88 804.88,-803.88"/>
<text xml:space="preserve" text-anchor="middle" x="684.38" y="-786.45" font-family="Helvetica,sans-Serif" font-size="14.00">Abrasive Wheel Machinery [§1910.215]</text>
</a>
</g>
</g>
<!-- OSHA&#45;&gt;1910.215 -->
<g id="edge10" class="edge">
<title>OSHA&#45;&gt;1910.215</title>
<path fill="none" stroke="black" d="M432.04,-812.71C468.17,-809.72 508.74,-806.35 546.57,-803.22"/>
<polygon fill="black" stroke="black" points="546.5,-806.73 556.18,-802.42 545.93,-799.76 546.5,-806.73"/>
</g>
<!-- 1910.217 -->
<g id="node12" class="node">
<title>1910.217</title>
<g id="a_node12"><a xlink:title="Safety requirements for mechanical power press operation and maintenance.">
<polygon fill="none" stroke="lightgrey" points="805.62,-748.88 557.12,-748.88 557.12,-712.88 811.62,-712.88 811.62,-742.88 805.62,-748.88"/>
<polyline fill="none" stroke="lightgrey" points="805.62,-748.88 805.62,-742.88"/>
<polyline fill="none" stroke="lightgrey" points="811.62,-742.88 805.62,-742.88"/>
<text xml:space="preserve" text-anchor="middle" x="684.38" y="-725.45" font-family="Helvetica,sans-Serif" font-size="14.00">Mechanical Power Presses [§1910.217]</text>
</a>
</g>
</g>
<!-- OSHA&#45;&gt;1910.217 -->
<g id="edge11" class="edge">
<title>OSHA&#45;&gt;1910.217</title>
<path fill="none" stroke="black" d="M360.77,-803.38C390.81,-789.95 433.59,-772.37 472.75,-761.88 496.05,-755.63 521.15,-750.56 545.63,-746.46"/>
<polygon fill="black" stroke="black" points="546.02,-749.94 555.33,-744.89 544.9,-743.03 546.02,-749.94"/>
</g>
<!-- 1910.218 -->
<g id="node13" class="node">
<title>1910.218</title>
<g id="a_node13"><a xlink:title="Safety practices and guarding for forging machinery.">
<polygon fill="none" stroke="lightgrey" points="777.88,-687.88 584.88,-687.88 584.88,-651.88 783.88,-651.88 783.88,-681.88 777.88,-687.88"/>
<polyline fill="none" stroke="lightgrey" points="777.88,-687.88 777.88,-681.88"/>
<polyline fill="none" stroke="lightgrey" points="783.88,-681.88 777.88,-681.88"/>
<text xml:space="preserve" text-anchor="middle" x="684.38" y="-664.45" font-family="Helvetica,sans-Serif" font-size="14.00">Forging Machines [§1910.218]</text>
</a>
</g>
</g>
<!-- OSHA&#45;&gt;1910.218 -->
<g id="edge12" class="edge">
<title>OSHA&#45;&gt;1910.218</title>
<path fill="none" stroke="black" d="M338.04,-803.51C363.86,-776.15 416.63,-725.3 472.75,-700.88 503.96,-687.29 539.97,-679.47 573.29,-675.02"/>
<polygon fill="black" stroke="black" points="573.48,-678.53 582.97,-673.83 572.62,-671.58 573.48,-678.53"/>
</g>
<!-- 1910.219 -->
<g id="node14" class="node">
<title>1910.219</title>
<g id="a_node14"><a xlink:title="Guarding requirements for belts, pulleys, gears, and other transmission parts.">
<polygon fill="none" stroke="lightgrey" points="854,-626.88 508.75,-626.88 508.75,-590.88 860,-590.88 860,-620.88 854,-626.88"/>
<polyline fill="none" stroke="lightgrey" points="854,-626.88 854,-620.88"/>
<polyline fill="none" stroke="lightgrey" points="860,-620.88 854,-620.88"/>
<text xml:space="preserve" text-anchor="middle" x="684.38" y="-603.45" font-family="Helvetica,sans-Serif" font-size="14.00">Mechanical Power Transmission Apparatus [§1910.219]</text>
</a>
</g>
</g>
<!-- OSHA&#45;&gt;1910.219 -->
<g id="edge13" class="edge">
<title>OSHA&#45;&gt;1910.219</title>
<path fill="none" stroke="black" d="M330.65,-803.65C350.66,-765.92 402.18,-679.51 472.75,-639.88 480.71,-635.4 489.1,-631.51 497.75,-628.11"/>
<polygon fill="black" stroke="black" points="498.81,-631.45 507.01,-624.74 496.42,-624.88 498.81,-631.45"/>
</g>
<!-- 2011&#45;156 -->
<g id="node15" class="node">
<title>2011&#45;156</title>
<g id="a_node15"><a xlink:title="Guidance on implementing LOTO programs to protect workers.">
<polygon fill="none" stroke="lightgrey" points="836.75,-565.88 526,-565.88 526,-529.88 842.75,-529.88 842.75,-559.88 836.75,-565.88"/>
<polyline fill="none" stroke="lightgrey" points="836.75,-565.88 836.75,-559.88"/>
<polyline fill="none" stroke="lightgrey" points="842.75,-559.88 836.75,-559.88"/>
<text xml:space="preserve" text-anchor="middle" x="684.38" y="-542.45" font-family="Helvetica,sans-Serif" font-size="14.00">Using Lockout/Tagout to Prevent Injury (2011&#45;156)</text>
</a>
</g>
</g>
<!-- NIOSH&#45;&gt;2011&#45;156 -->
<g id="edge14" class="edge">
<title>NIOSH&#45;&gt;2011&#45;156</title>
<path fill="none" stroke="black" d="M388.72,-501.56C414.88,-507.04 445.15,-513.09 472.75,-517.88 492.4,-521.29 513.13,-524.59 533.62,-527.69"/>
<polygon fill="black" stroke="black" points="533.06,-531.14 543.47,-529.16 534.09,-524.22 533.06,-531.14"/>
</g>
<!-- 85&#45;103 -->
<g id="node16" class="node">
<title>85&#45;103</title>
<g id="a_node16"><a xlink:title="Safety strategies for preventing robot&#45;related injuries.">
<polygon fill="none" stroke="lightgrey" points="831.12,-504.88 531.62,-504.88 531.62,-468.88 837.12,-468.88 837.12,-498.88 831.12,-504.88"/>
<polyline fill="none" stroke="lightgrey" points="831.12,-504.88 831.12,-498.88"/>
<polyline fill="none" stroke="lightgrey" points="837.12,-498.88 831.12,-498.88"/>
<text xml:space="preserve" text-anchor="middle" x="684.38" y="-481.45" font-family="Helvetica,sans-Serif" font-size="14.00">Preventing Injury of Workers by Robots (85&#45;103)</text>
</a>
</g>
</g>
<!-- NIOSH&#45;&gt;85&#45;103 -->
<g id="edge15" class="edge">
<title>NIOSH&#45;&gt;85&#45;103</title>
<path fill="none" stroke="black" d="M388.72,-486.88C425.82,-486.88 473.66,-486.88 519.95,-486.88"/>
<polygon fill="black" stroke="black" points="519.85,-490.38 529.85,-486.88 519.85,-483.38 519.85,-490.38"/>
</g>
<!-- OTM -->
<g id="node17" class="node">
<title>OTM</title>
<g id="a_node17"><a xlink:title="Technical guidance on hazards, safeguarding, and risk assessments for industrial robots.">
<polygon fill="none" stroke="lightgrey" points="848.75,-443.88 514,-443.88 514,-407.88 854.75,-407.88 854.75,-437.88 848.75,-443.88"/>
<polyline fill="none" stroke="lightgrey" points="848.75,-443.88 848.75,-437.88"/>
<polyline fill="none" stroke="lightgrey" points="854.75,-437.88 848.75,-437.88"/>
<text xml:space="preserve" text-anchor="middle" x="684.38" y="-420.45" font-family="Helvetica,sans-Serif" font-size="14.00">OSHA Technical Manual, Section IV: Industrial Robots</text>
</a>
</g>
</g>
<!-- Guides&#45;&gt;OTM -->
<g id="edge16" class="edge">
<title>Guides&#45;&gt;OTM</title>
<path fill="none" stroke="black" d="M433.03,-404.43C455.08,-406.32 478.75,-408.35 502.42,-410.37"/>
<polygon fill="black" stroke="black" points="501.89,-413.84 512.16,-411.21 502.49,-406.87 501.89,-413.84"/>
</g>
<!-- OSHA3120 -->
<g id="node18" class="node">
<title>OSHA3120</title>
<g id="a_node18"><a xlink:title="OSHA handbook outlining lockout/tagout procedures.">
<polygon fill="none" stroke="lightgrey" points="865.25,-382.88 497.5,-382.88 497.5,-346.88 871.25,-346.88 871.25,-376.88 865.25,-382.88"/>
<polyline fill="none" stroke="lightgrey" points="865.25,-382.88 865.25,-376.88"/>
<polyline fill="none" stroke="lightgrey" points="871.25,-376.88 865.25,-376.88"/>
<text xml:space="preserve" text-anchor="middle" x="684.38" y="-359.45" font-family="Helvetica,sans-Serif" font-size="14.00">Lockout/Tagout: Control of Hazardous Energy (OSHA 3120)</text>
</a>
</g>
</g>
<!-- Guides&#45;&gt;OSHA3120 -->
<g id="edge17" class="edge">
<title>Guides&#45;&gt;OSHA3120</title>
<path fill="none" stroke="black" d="M433.03,-385.63C449.97,-384.22 467.86,-382.74 485.98,-381.24"/>
<polygon fill="black" stroke="black" points="486.1,-384.74 495.78,-380.43 485.52,-377.77 486.1,-384.74"/>
</g>
<!-- OSHA3170 -->
<g id="node19" class="node">
<title>OSHA3170</title>
<g id="a_node19"><a xlink:title="OSHA guide to machine guarding methods to prevent injuries.">
<polygon fill="none" stroke="lightgrey" points="890,-321.88 472.75,-321.88 472.75,-285.88 896,-285.88 896,-315.88 890,-321.88"/>
<polyline fill="none" stroke="lightgrey" points="890,-321.88 890,-315.88"/>
<polyline fill="none" stroke="lightgrey" points="896,-315.88 890,-315.88"/>
<text xml:space="preserve" text-anchor="middle" x="684.38" y="-298.45" font-family="Helvetica,sans-Serif" font-size="14.00">Safeguarding Equipment and Preventing Amputations (OSHA 3170)</text>
</a>
</g>
</g>
<!-- Guides&#45;&gt;OSHA3170 -->
<g id="edge18" class="edge">
<title>Guides&#45;&gt;OSHA3170</title>
<path fill="none" stroke="black" d="M360.77,-376.38C390.81,-362.95 433.59,-345.37 472.75,-334.88 487.33,-330.97 502.62,-327.52 518.02,-324.48"/>
<polygon fill="black" stroke="black" points="518.59,-327.93 527.75,-322.62 517.27,-321.06 518.59,-327.93"/>
</g>
<!-- MachinesList -->
<g id="node20" class="node">
<title>MachinesList</title>
<g id="a_node20"><a xlink:title="Machines covered by the manuals branch.">
<polygon fill="none" stroke="lightgrey" points="791.75,-261.25 571,-261.25 571,-174.5 797.75,-174.5 797.75,-255.25 791.75,-261.25"/>
<polyline fill="none" stroke="lightgrey" points="791.75,-261.25 791.75,-255.25"/>
<polyline fill="none" stroke="lightgrey" points="797.75,-255.25 791.75,-255.25"/>
<text xml:space="preserve" text-anchor="start" x="579" y="-243.95" font-family="Helvetica,sans-Serif" font-size="14.00">Machines:</text>
<text xml:space="preserve" text-anchor="start" x="579" y="-228.2" font-family="Helvetica,sans-Serif" font-size="14.00"> • Universal Cobot</text>
<text xml:space="preserve" text-anchor="start" x="579" y="-212.45" font-family="Helvetica,sans-Serif" font-size="14.00"> • CNC TL&#45;1</text>
<text xml:space="preserve" text-anchor="start" x="579" y="-196.7" font-family="Helvetica,sans-Serif" font-size="14.00"> • Bridgeport Manual Milling</text>
<text xml:space="preserve" text-anchor="start" x="579" y="-180.95" font-family="Helvetica,sans-Serif" font-size="14.00"> • Manual Lathe (optional for BWC)</text>
</a>
</g>
</g>
<!-- Manuals&#45;&gt;MachinesList -->
<g id="edge19" class="edge">
<title>Manuals&#45;&gt;MachinesList</title>
<path fill="none" stroke="black" d="M382.48,-217.88C430.64,-217.88 499.43,-217.88 559.09,-217.88"/>
<polygon fill="black" stroke="black" points="558.99,-221.38 568.99,-217.88 558.99,-214.38 558.99,-221.38"/>
</g>
<!-- ManualCats -->
<g id="node21" class="node">
<title>ManualCats</title>
<g id="a_node21"><a xlink:title="Shared categories that exist for each listed machine.">
<polygon fill="none" stroke="lightgrey" points="745.25,-149.75 617.5,-149.75 617.5,0 751.25,0 751.25,-143.75 745.25,-149.75"/>
<polyline fill="none" stroke="lightgrey" points="745.25,-149.75 745.25,-143.75"/>
<polyline fill="none" stroke="lightgrey" points="751.25,-143.75 745.25,-143.75"/>
<text xml:space="preserve" text-anchor="start" x="625.5" y="-132.45" font-family="Helvetica,sans-Serif" font-size="14.00">Manual Categories:</text>
<text xml:space="preserve" text-anchor="start" x="625.5" y="-116.7" font-family="Helvetica,sans-Serif" font-size="14.00"> • Operation</text>
<text xml:space="preserve" text-anchor="start" x="625.5" y="-100.95" font-family="Helvetica,sans-Serif" font-size="14.00"> • Maintenance</text>
<text xml:space="preserve" text-anchor="start" x="625.5" y="-85.2" font-family="Helvetica,sans-Serif" font-size="14.00"> • Installation</text>
<text xml:space="preserve" text-anchor="start" x="625.5" y="-69.45" font-family="Helvetica,sans-Serif" font-size="14.00"> • Programming</text>
<text xml:space="preserve" text-anchor="start" x="625.5" y="-53.7" font-family="Helvetica,sans-Serif" font-size="14.00"> • Safety/EHS</text>
<text xml:space="preserve" text-anchor="start" x="625.5" y="-37.95" font-family="Helvetica,sans-Serif" font-size="14.00"> • Calibration</text>
<text xml:space="preserve" text-anchor="start" x="625.5" y="-22.2" font-family="Helvetica,sans-Serif" font-size="14.00"> • Training</text>
<text xml:space="preserve" text-anchor="start" x="625.5" y="-6.45" font-family="Helvetica,sans-Serif" font-size="14.00"> • Integration</text>
</a>
</g>
</g>
<!-- Manuals&#45;&gt;ManualCats -->
<g id="edge20" class="edge">
<title>Manuals&#45;&gt;ManualCats</title>
<path fill="none" stroke="black" d="M368.07,-199.47C428.38,-175.64 534.33,-133.77 606.62,-105.2"/>
<polygon fill="black" stroke="black" points="607.62,-108.58 615.63,-101.65 605.04,-102.07 607.62,-108.58"/>
</g>
</g>
</svg>
