<?xml version="1.0" encoding="UTF-8" standalone="no"?>
<!DOCTYPE svg PUBLIC "-//W3C//DTD SVG 1.1//EN"
 "http://www.w3.org/Graphics/SVG/1.1/DTD/svg11.dtd">
<!-- Generated by graphviz version 2.43.0 (0)
 -->
<!-- Title: %3 Pages: 1 -->
<svg width="594pt" height="605pt"
 viewBox="0.00 0.00 593.80 604.80" xmlns="http://www.w3.org/2000/svg" xmlns:xlink="http://www.w3.org/1999/xlink">
<g id="graph0" class="graph" transform="scale(1 1) rotate(0) translate(86.4 518.4)">
<title>%3</title>
<polygon fill="white" stroke="transparent" points="-86.4,86.4 -86.4,-518.4 507.4,-518.4 507.4,86.4 -86.4,86.4"/>
<!-- KB&#45;&gt;OSHA -->
<g id="edge1" class="edge">
<title>KB&#45;&gt;OSHA</title>
<path fill="none" stroke="black" d="M70.79,-324.14C89.95,-339.13 118.24,-360.68 144,-378 150.24,-382.19 156.96,-386.46 163.58,-390.53"/>
<polygon fill="black" stroke="black" points="162.11,-393.73 172.48,-395.92 165.74,-387.74 162.11,-393.73"/>
</g>
<!-- KB&#45;&gt;NIOSH -->
<g id="edge2" class="edge">
<title>KB&#45;&gt;NIOSH</title>
<path fill="none" stroke="black" d="M94.38,-316.7C114.82,-321.42 138.74,-326.94 159.02,-331.62"/>
<polygon fill="black" stroke="black" points="158.42,-335.07 168.95,-333.91 159.99,-328.25 158.42,-335.07"/>
</g>
<!-- KB&#45;&gt;Guides -->
<g id="edge3" class="edge">
<title>KB&#45;&gt;Guides</title>
<path fill="none" stroke="black" d="M94.38,-295.3C109.93,-291.71 127.49,-287.66 143.93,-283.86"/>
<polygon fill="black" stroke="black" points="145.03,-287.2 153.99,-281.54 143.46,-280.38 145.03,-287.2"/>
</g>
<!-- KB&#45;&gt;MSD -->
<g id="edge4" class="edge">
<title>KB&#45;&gt;MSD</title>
<path fill="none" stroke="black" d="M70.79,-287.86C89.95,-272.87 118.24,-251.32 144,-234 150.24,-229.81 156.96,-225.54 163.58,-221.47"/>
<polygon fill="black" stroke="black" points="165.74,-224.26 172.48,-216.08 162.11,-218.27 165.74,-224.26"/>
</g>
<!-- MSD&#45;&gt;OEM -->
<g id="edge5" class="edge">
<title>MSD&#45;&gt;OEM</title>
<path fill="none" stroke="black" d="M244.12,-216.18C252.03,-221.17 259.83,-227.13 266,-234 301.35,-273.35 282.04,-301.45 316,-342 319.5,-346.18 323.6,-350.1 327.93,-353.71"/>
<polygon fill="black" stroke="black" points="325.83,-356.51 335.89,-359.84 330.1,-350.96 325.83,-356.51"/>
</g>
<!-- MSD&#45;&gt;SOP -->
<g id="edge6" class="edge">
<title>MSD&#45;&gt;SOP</title>
<path fill="none" stroke="black" d="M237.14,-216.01C246.52,-221.62 256.77,-227.92 266,-234 288.87,-249.06 293.67,-254.16 316,-270 321.56,-273.94 327.47,-278.11 333.24,-282.15"/>
<polygon fill="black" stroke="black" points="331.32,-285.08 341.52,-287.94 335.33,-279.34 331.32,-285.08"/>
</g>
<!-- MSD&#45;&gt;MAIN -->
<g id="edge7" class="edge">
<title>MSD&#45;&gt;MAIN</title>
<path fill="none" stroke="black" d="M266.14,-211.41C279.14,-214.3 292.91,-217.37 305.97,-220.29"/>
<polygon fill="black" stroke="black" points="305.27,-223.72 315.8,-222.47 306.8,-216.88 305.27,-223.72"/>
</g>
<!-- MSD&#45;&gt;RISK -->
<g id="edge8" class="edge">
<title>MSD&#45;&gt;RISK</title>
<path fill="none" stroke="black" d="M266.14,-184.59C280.43,-181.41 295.64,-178.02 309.81,-174.86"/>
<polygon fill="black" stroke="black" points="310.93,-178.2 319.92,-172.6 309.4,-171.36 310.93,-178.2"/>
</g>
<!-- MSD&#45;&gt;TRBL -->
<g id="edge9" class="edge">
<title>MSD&#45;&gt;TRBL</title>
<path fill="none" stroke="black" d="M233.03,-179.92C260.17,-161.78 302.11,-133.73 331.93,-113.79"/>
<polygon fill="black" stroke="black" points="334.01,-116.6 340.38,-108.14 330.12,-110.79 334.01,-116.6"/>
</g>
<!-- MSD&#45;&gt;LOTO -->
<g id="edge10" class="edge">
<title>MSD&#45;&gt;LOTO</title>
<path fill="none" stroke="black" d="M217.29,-179.74C235.67,-150.92 274.21,-94.06 316,-54 320.29,-49.89 325.08,-45.9 329.97,-42.16"/>
<polygon fill="black" stroke="black" points="332.21,-44.86 338.22,-36.14 328.08,-39.21 332.21,-44.86"/>
</g>
<!-- KB -->
<g id="node1" class="node">
<title>KB</title>
<polygon fill="lightblue" stroke="lightblue" points="94,-324 0,-324 0,-288 94,-288 94,-324"/>
<text text-anchor="middle" x="47" y="-309" font-family="DejaVu Sans" font-size="10.00">Chatbot</text>
<text text-anchor="middle" x="47" y="-298" font-family="DejaVu Sans" font-size="10.00">Knowledge Base</text>
</g>
<!-- OSHA -->
<g id="node2" class="node">
<title>OSHA</title>
<polygon fill="lightyellow" stroke="lightyellow" points="255.5,-432 252.5,-436 231.5,-436 228.5,-432 154.5,-432 154.5,-396 255.5,-396 255.5,-432"/>
<text text-anchor="middle" x="205" y="-417" font-family="DejaVu Sans" font-size="10.00">OSHA Regulations</text>
<text text-anchor="middle" x="205" y="-406" font-family="DejaVu Sans" font-size="10.00">(29 CFR 1910)</text>
</g>
<!-- NIOSH -->
<g id="node3" class="node">
<title>NIOSH</title>
<polygon fill="lightyellow" stroke="lightyellow" points="241,-360 238,-364 217,-364 214,-360 169,-360 169,-324 241,-324 241,-360"/>
<text text-anchor="middle" x="205" y="-345" font-family="DejaVu Sans" font-size="10.00">NIOSH</text>
<text text-anchor="middle" x="205" y="-334" font-family="DejaVu Sans" font-size="10.00">Publications</text>
</g>
<!-- Guides -->
<g id="node4" class="node">
<title>Guides</title>
<polygon fill="lightyellow" stroke="lightyellow" points="256,-288 253,-292 232,-292 229,-288 154,-288 154,-252 256,-252 256,-288"/>
<text text-anchor="middle" x="205" y="-273" font-family="DejaVu Sans" font-size="10.00">OSHA Guides /</text>
<text text-anchor="middle" x="205" y="-262" font-family="DejaVu Sans" font-size="10.00">Technical Manuals</text>
</g>
<!-- MSD -->
<g id="node5" class="node">
<title>MSD</title>
<polygon fill="white" stroke="#c3142d" points="266,-216 263,-220 242,-220 239,-216 144,-216 144,-180 266,-180 266,-216"/>
<text text-anchor="middle" x="205" y="-201" font-family="DejaVu Sans" font-size="10.00" fill="#c3142d">Machine&#45;Specific Docs</text>
<text text-anchor="middle" x="205" y="-190" font-family="DejaVu Sans" font-size="10.00" fill="#c3142d">(New)</text>
</g>
<!-- OEM -->
<g id="node6" class="node">
<title>OEM</title>
<polygon fill="white" stroke="#c3142d" points="408,-396 405,-400 384,-400 381,-396 329,-396 329,-360 408,-360 408,-396"/>
<text text-anchor="middle" x="368.5" y="-381" font-family="DejaVu Sans" font-size="10.00" fill="#c3142d">OEM Manuals</text>
<text text-anchor="middle" x="368.5" y="-370" font-family="DejaVu Sans" font-size="10.00" fill="#c3142d">&amp; Bulletins</text>
</g>
<!-- SOP -->
<g id="node7" class="node">
<title>SOP</title>
<polygon fill="white" stroke="#c3142d" points="404,-324 401,-328 380,-328 377,-324 333,-324 333,-288 404,-288 404,-324"/>
<text text-anchor="middle" x="368.5" y="-309" font-family="DejaVu Sans" font-size="10.00" fill="#c3142d">SOPs / Work</text>
<text text-anchor="middle" x="368.5" y="-298" font-family="DejaVu Sans" font-size="10.00" fill="#c3142d">Instructions</text>
</g>
<!-- MAIN -->
<g id="node8" class="node">
<title>MAIN</title>
<polygon fill="white" stroke="#c3142d" points="421,-252 418,-256 397,-256 394,-252 316,-252 316,-216 421,-216 421,-252"/>
<text text-anchor="middle" x="368.5" y="-237" font-family="DejaVu Sans" font-size="10.00" fill="#c3142d">Maintenance &amp;</text>
<text text-anchor="middle" x="368.5" y="-226" font-family="DejaVu Sans" font-size="10.00" fill="#c3142d">Inspection Records</text>
</g>
<!-- RISK -->
<g id="node9" class="node">
<title>RISK</title>
<polygon fill="white" stroke="#c3142d" points="417,-180 414,-184 393,-184 390,-180 320,-180 320,-144 417,-144 417,-180"/>
<text text-anchor="middle" x="368.5" y="-165" font-family="DejaVu Sans" font-size="10.00" fill="#c3142d">Risk / HAZOP /</text>
<text text-anchor="middle" x="368.5" y="-154" font-family="DejaVu Sans" font-size="10.00" fill="#c3142d">JHA Assessments</text>
</g>
<!-- TRBL -->
<g id="node10" class="node">
<title>TRBL</title>
<polygon fill="white" stroke="#c3142d" points="416.5,-108 413.5,-112 392.5,-112 389.5,-108 320.5,-108 320.5,-72 416.5,-72 416.5,-108"/>
<text text-anchor="middle" x="368.5" y="-93" font-family="DejaVu Sans" font-size="10.00" fill="#c3142d">Troubleshooting /</text>
<text text-anchor="middle" x="368.5" y="-82" font-family="DejaVu Sans" font-size="10.00" fill="#c3142d">Fault Trees</text>
</g>
<!-- LOTO -->
<g id="node11" class="node">
<title>LOTO</title>
<polygon fill="white" stroke="#c3142d" points="416.5,-36 413.5,-40 392.5,-40 389.5,-36 320.5,-36 320.5,0 416.5,0 416.5,-36"/>
<text text-anchor="middle" x="368.5" y="-21" font-family="DejaVu Sans" font-size="10.00" fill="#c3142d">LOTO Procedures</text>
<text text-anchor="middle" x="368.5" y="-10" font-family="DejaVu Sans" font-size="10.00" fill="#c3142d">(Unit&#45;Specific)</text>
</g>
</g>
</svg>
