<?xml version="1.0" encoding="UTF-8" standalone="no"?>
<!DOCTYPE svg PUBLIC "-//W3C//DTD SVG 1.1//EN" "http://www.w3.org/Graphics/SVG/1.1/DTD/svg11.dtd">
<!-- Generated by graphviz version 2.40.1 (20161225.0304)
 -->
<!-- Title: LLM_Use_Cases Pages: 1 -->
<svg xmlns="http://www.w3.org/2000/svg" xmlns:xlink="http://www.w3.org/1999/xlink" width="922pt" height="244pt" viewBox="0.00 0.00 921.85 244.00">
  <g id="graph0" class="graph" transform="scale(1 1) rotate(0) translate(4 240)">
    <title>LLM_Use_Cases</title>
    <polygon fill="#ffffff" stroke="transparent" points="-4,4 -4,-240 917.8457,-240 917.8457,4 -4,4"/>
    <!-- UseCases -->
    <g id="node1" class="node">
      <title>UseCases</title>
      <polygon fill="none" stroke="#000000" points="517.6781,-236 423.2167,-236 423.2167,-200 517.6781,-200 517.6781,-236"/>
      <text text-anchor="start" x="431.3322" y="-214.2" font-family="Arial" font-weight="bold" font-size="16.00" fill="#000000">Use Cases</text>
    </g>
    <!-- HighlyUseful -->
    <g id="node2" class="node">
      <title>HighlyUseful</title>
      <polygon fill="none" stroke="#000000" points="222.7832,-164 120.1116,-164 120.1116,-128 222.7832,-128 222.7832,-164"/>
      <text text-anchor="start" x="128.2798" y="-142.8" font-family="Arial" font-weight="bold" font-size="14.00" fill="#000000">Highly Useful </text>
    </g>
    <!-- UseCases&#45;&gt;HighlyUseful -->
    <g id="edge1" class="edge">
      <title>UseCases-&gt;HighlyUseful</title>
      <path fill="none" stroke="#000000" d="M423.07,-206.5914C371.5745,-194.1911 289.1137,-174.3344 232.7252,-160.7559"/>
      <polygon fill="#000000" stroke="#000000" points="233.4041,-157.3194 222.8626,-158.3809 231.7653,-164.1248 233.4041,-157.3194"/>
    </g>
    <!-- SomewhatUseful -->
    <g id="node3" class="node">
      <title>SomewhatUseful</title>
      <polygon fill="none" stroke="#000000" points="535.0231,-164 405.8717,-164 405.8717,-128 535.0231,-128 535.0231,-164"/>
      <text text-anchor="start" x="413.6599" y="-142.8" font-family="Arial" font-weight="bold" font-size="14.00" fill="#000000">Somewhat Useful </text>
    </g>
    <!-- UseCases&#45;&gt;SomewhatUseful -->
    <g id="edge2" class="edge">
      <title>UseCases-&gt;SomewhatUseful</title>
      <path fill="none" stroke="#000000" d="M470.4474,-199.8314C470.4474,-192.131 470.4474,-182.9743 470.4474,-174.4166"/>
      <polygon fill="#000000" stroke="#000000" points="473.9475,-174.4132 470.4474,-164.4133 466.9475,-174.4133 473.9475,-174.4132"/>
    </g>
    <!-- HardlyUseful -->
    <g id="node4" class="node">
      <title>HardlyUseful</title>
      <polygon fill="none" stroke="#000000" points="776.3367,-164 672.5581,-164 672.5581,-128 776.3367,-128 776.3367,-164"/>
      <text text-anchor="start" x="680.5028" y="-142.8" font-family="Arial" font-weight="bold" font-size="14.00" fill="#000000">Hardly Useful </text>
    </g>
    <!-- UseCases&#45;&gt;HardlyUseful -->
    <g id="edge3" class="edge">
      <title>UseCases-&gt;HardlyUseful</title>
      <path fill="none" stroke="#000000" d="M517.6276,-204.6261C558.4416,-193.0568 617.7515,-176.2445 662.403,-163.5874"/>
      <polygon fill="#000000" stroke="#000000" points="663.6018,-166.8856 672.2682,-160.791 661.6927,-160.1509 663.6018,-166.8856"/>
    </g>
    <!-- ContentCreation -->
    <g id="node5" class="node">
      <title>ContentCreation</title>
      <polygon fill="none" stroke="#000000" points="68.8423,-66.6019 .0525,-66.6019 .0525,-25.3981 68.8423,-25.3981 68.8423,-66.6019"/>
      <text text-anchor="middle" x="34.4474" y="-50.2" font-family="Arial" font-size="14.00" fill="#000000">Content</text>
      <text text-anchor="middle" x="34.4474" y="-33.4" font-family="Arial" font-size="14.00" fill="#000000">Creation</text>
    </g>
    <!-- HighlyUseful&#45;&gt;ContentCreation -->
    <g id="edge4" class="edge">
      <title>HighlyUseful-&gt;ContentCreation</title>
      <path fill="none" stroke="#000000" d="M134.1227,-127.8689C116.1823,-118.3464 94.8511,-105.7956 77.4474,-92 70.9419,-86.8432 64.5123,-80.6982 58.686,-74.605"/>
      <polygon fill="#000000" stroke="#000000" points="61.0198,-71.9729 51.6683,-66.9929 55.8732,-76.7176 61.0198,-71.9729"/>
    </g>
    <!-- Chatbots -->
    <g id="node6" class="node">
      <title>Chatbots</title>
      <polygon fill="none" stroke="#000000" points="158.4656,-64 86.4292,-64 86.4292,-28 158.4656,-28 158.4656,-64"/>
      <text text-anchor="middle" x="122.4474" y="-41.8" font-family="Arial" font-size="14.00" fill="#000000">Chatbots</text>
    </g>
    <!-- HighlyUseful&#45;&gt;Chatbots -->
    <g id="edge5" class="edge">
      <title>HighlyUseful-&gt;Chatbots</title>
      <path fill="none" stroke="#000000" d="M162.46,-127.6585C155.0003,-112.4345 144.2811,-90.5585 135.8146,-73.28"/>
      <polygon fill="#000000" stroke="#000000" points="138.921,-71.6651 131.3778,-64.2253 132.635,-74.7452 138.921,-71.6651"/>
    </g>
    <!-- KnowledgeDiscovery -->
    <g id="node7" class="node">
      <title>KnowledgeDiscovery</title>
      <polygon fill="none" stroke="#000000" points="262.1932,-66.6019 176.7016,-66.6019 176.7016,-25.3981 262.1932,-25.3981 262.1932,-66.6019"/>
      <text text-anchor="middle" x="219.4474" y="-50.2" font-family="Arial" font-size="14.00" fill="#000000">Knowledge</text>
      <text text-anchor="middle" x="219.4474" y="-33.4" font-family="Arial" font-size="14.00" fill="#000000">Discovery</text>
    </g>
    <!-- HighlyUseful&#45;&gt;KnowledgeDiscovery -->
    <g id="edge6" class="edge">
      <title>HighlyUseful-&gt;KnowledgeDiscovery</title>
      <path fill="none" stroke="#000000" d="M180.2513,-127.6585C187.1744,-113.2353 196.9634,-92.8417 205.0266,-76.0433"/>
      <polygon fill="#000000" stroke="#000000" points="208.3679,-77.1703 209.54,-66.6405 202.0573,-74.1411 208.3679,-77.1703"/>
    </g>
    <!-- SegmentationClassification -->
    <g id="node8" class="node">
      <title>SegmentationClassification</title>
      <polygon fill="#ffffff" stroke="#c3142d" stroke-width="4" points="409.0245,-92 279.8703,-92 279.8703,0 409.0245,0 409.0245,-92"/>
      <text text-anchor="middle" x="344.4474" y="-75.4" font-family="Arial" font-size="14.00" fill="#c3142d">Segmentation/</text>
      <text text-anchor="middle" x="344.4474" y="-58.6" font-family="Arial" font-size="14.00" fill="#c3142d">Classification</text>
      <text text-anchor="middle" x="344.4474" y="-41.8" font-family="Arial" font-size="14.00" fill="#c3142d">and</text>
      <text text-anchor="middle" x="344.4474" y="-25" font-family="Arial" font-size="14.00" fill="#c3142d"> Recommendation</text>
      <text text-anchor="middle" x="344.4474" y="-8.2" font-family="Arial" font-size="14.00" fill="#c3142d">Systems</text>
    </g>
    <!-- SomewhatUseful&#45;&gt;SegmentationClassification -->
    <g id="edge7" class="edge">
      <title>SomewhatUseful-&gt;SegmentationClassification</title>
      <path fill="none" stroke="#000000" d="M447.6298,-127.8908C437.0182,-119.4689 423.7962,-108.9752 410.3959,-98.3401"/>
      <polygon fill="#000000" stroke="#000000" points="412.5126,-95.5516 402.5039,-92.0765 408.1609,-101.0347 412.5126,-95.5516"/>
    </g>
    <!-- IntelligentAutomation -->
    <g id="node9" class="node">
      <title>IntelligentAutomation</title>
      <polygon fill="none" stroke="#000000" points="513.7456,-66.6019 427.1492,-66.6019 427.1492,-25.3981 513.7456,-25.3981 513.7456,-66.6019"/>
      <text text-anchor="middle" x="470.4474" y="-50.2" font-family="Arial" font-size="14.00" fill="#000000">Intelligent</text>
      <text text-anchor="middle" x="470.4474" y="-33.4" font-family="Arial" font-size="14.00" fill="#000000">Automation</text>
    </g>
    <!-- SomewhatUseful&#45;&gt;IntelligentAutomation -->
    <g id="edge8" class="edge">
      <title>SomewhatUseful-&gt;IntelligentAutomation</title>
      <path fill="none" stroke="#000000" d="M470.4474,-127.6585C470.4474,-113.5049 470.4474,-93.602 470.4474,-76.989"/>
      <polygon fill="#000000" stroke="#000000" points="473.9475,-76.6404 470.4474,-66.6405 466.9475,-76.6405 473.9475,-76.6404"/>
    </g>
    <!-- AnomalyDetection -->
    <g id="node10" class="node">
      <title>AnomalyDetection</title>
      <polygon fill="none" stroke="#000000" points="613.2861,-83.7003 531.6087,-83.7003 531.6087,-8.2997 613.2861,-8.2997 613.2861,-83.7003"/>
      <text text-anchor="middle" x="572.4474" y="-67" font-family="Arial" font-size="14.00" fill="#000000">Anomaly</text>
      <text text-anchor="middle" x="572.4474" y="-50.2" font-family="Arial" font-size="14.00" fill="#000000">Detection</text>
      <text text-anchor="middle" x="572.4474" y="-33.4" font-family="Arial" font-size="14.00" fill="#000000">and</text>
      <text text-anchor="middle" x="572.4474" y="-16.6" font-family="Arial" font-size="14.00" fill="#000000">Monitoring</text>
    </g>
    <!-- SomewhatUseful&#45;&gt;AnomalyDetection -->
    <g id="edge9" class="edge">
      <title>SomewhatUseful-&gt;AnomalyDetection</title>
      <path fill="none" stroke="#000000" d="M489.1558,-127.6585C499.7345,-117.2871 513.4622,-103.8286 526.711,-90.8396"/>
      <polygon fill="#000000" stroke="#000000" points="529.3086,-93.1944 533.9991,-83.6944 524.4081,-88.1959 529.3086,-93.1944"/>
    </g>
    <!-- PredictionForecasting -->
    <g id="node11" class="node">
      <title>PredictionForecasting</title>
      <polygon fill="none" stroke="#000000" points="720.0709,-66.6019 630.8239,-66.6019 630.8239,-25.3981 720.0709,-25.3981 720.0709,-66.6019"/>
      <text text-anchor="middle" x="675.4474" y="-50.2" font-family="Arial" font-size="14.00" fill="#000000">Prediction/</text>
      <text text-anchor="middle" x="675.4474" y="-33.4" font-family="Arial" font-size="14.00" fill="#000000">Forecasting</text>
    </g>
    <!-- HardlyUseful&#45;&gt;PredictionForecasting -->
    <g id="edge10" class="edge">
      <title>HardlyUseful-&gt;PredictionForecasting</title>
      <path fill="none" stroke="#000000" d="M715.46,-127.6585C708.3927,-113.2353 698.3998,-92.8417 690.1686,-76.0433"/>
      <polygon fill="#000000" stroke="#000000" points="693.1044,-74.0803 685.5612,-66.6405 686.8185,-77.1605 693.1044,-74.0803"/>
    </g>
    <!-- Planning -->
    <g id="node12" class="node">
      <title>Planning</title>
      <polygon fill="none" stroke="#000000" points="808.9117,-64 737.9831,-64 737.9831,-28 808.9117,-28 808.9117,-64"/>
      <text text-anchor="middle" x="773.4474" y="-41.8" font-family="Arial" font-size="14.00" fill="#000000">Planning</text>
    </g>
    <!-- HardlyUseful&#45;&gt;Planning -->
    <g id="edge11" class="edge">
      <title>HardlyUseful-&gt;Planning</title>
      <path fill="none" stroke="#000000" d="M733.4348,-127.6585C740.8945,-112.4345 751.6137,-90.5585 760.0802,-73.28"/>
      <polygon fill="#000000" stroke="#000000" points="763.2598,-74.7452 764.517,-64.2253 756.9738,-71.6651 763.2598,-74.7452"/>
    </g>
    <!-- DecisionIntelligence -->
    <g id="node13" class="node">
      <title>DecisionIntelligence</title>
      <polygon fill="none" stroke="#000000" points="913.7442,-66.6019 827.1506,-66.6019 827.1506,-25.3981 913.7442,-25.3981 913.7442,-66.6019"/>
      <text text-anchor="middle" x="870.4474" y="-50.2" font-family="Arial" font-size="14.00" fill="#000000">Decision</text>
      <text text-anchor="middle" x="870.4474" y="-33.4" font-family="Arial" font-size="14.00" fill="#000000">Intelligence</text>
    </g>
    <!-- HardlyUseful&#45;&gt;DecisionIntelligence -->
    <g id="edge12" class="edge">
      <title>HardlyUseful-&gt;DecisionIntelligence</title>
      <path fill="none" stroke="#000000" d="M758.9816,-127.988C776.9248,-118.1276 798.9149,-105.2428 817.4474,-92 825.3096,-86.3819 833.3874,-79.8296 840.7925,-73.4613"/>
      <polygon fill="#000000" stroke="#000000" points="843.3157,-75.9036 848.5218,-66.676 838.6976,-70.643 843.3157,-75.9036"/>
    </g>
  </g>
</svg>
